<?xml version="1.0" encoding="UTF-8" standalone="no"?>
<!-- Created with Inkscape (http://www.inkscape.org/) -->

<svg
   xmlns:dc="http://purl.org/dc/elements/1.1/"
   xmlns:cc="http://creativecommons.org/ns#"
   xmlns:rdf="http://www.w3.org/1999/02/22-rdf-syntax-ns#"
   xmlns:svg="http://www.w3.org/2000/svg"
   xmlns="http://www.w3.org/2000/svg"
   xmlns:sodipodi="http://sodipodi.sourceforge.net/DTD/sodipodi-0.dtd"
   xmlns:inkscape="http://www.inkscape.org/namespaces/inkscape"
   width="757.64044"
   height="1015.2553"
   id="svg2"
   version="1.1"
   inkscape:version="0.48.4 r9939"
   sodipodi:docname="New document 1">
  <defs
     id="defs4" />
  <sodipodi:namedview
     id="base"
     pagecolor="#ffffff"
     bordercolor="#666666"
     borderopacity="1.0"
     inkscape:pageopacity="0.0"
     inkscape:pageshadow="2"
     inkscape:zoom="0.66251648"
     inkscape:cx="173.88334"
     inkscape:cy="451.20026"
     inkscape:document-units="px"
     inkscape:current-layer="layer1"
     showgrid="false"
     inkscape:snap-page="true"
     fit-margin-top="0"
     fit-margin-left="0"
     fit-margin-right="0"
     fit-margin-bottom="0"
     inkscape:window-width="1918"
     inkscape:window-height="1176"
     inkscape:window-x="1920"
     inkscape:window-y="0"
     inkscape:window-maximized="0" />
  <metadata
     id="metadata7">
    <rdf:RDF>
      <cc:Work
         rdf:about="">
        <dc:format>image/svg+xml</dc:format>
        <dc:type
           rdf:resource="http://purl.org/dc/dcmitype/StillImage" />
        <dc:title></dc:title>
      </cc:Work>
    </rdf:RDF>
  </metadata>
  <g
     inkscape:label="Layer 1"
     inkscape:groupmode="layer"
     id="layer1"
     transform="translate(14.136357,-0.52982989)">
    <g
       id="g4215"
       transform="matrix(1.0837544,0,0,1.0837544,-56.807507,-80.692472)">
      <path
         inkscape:connector-curvature="0"
         id="path4193"
         d="M 130.24543,1011.275 C 88.473402,1003.0955 55.803819,983.79972 44.396023,960.56923 40.245564,952.1174 39.368641,947.973 39.37347,936.83286 c 0.0059,-11.93977 0.714599,-14.80509 6.14976,-24.83868 14.274918,-26.35209 41.484089,-41.35861 88.84151,-48.99818 57.37248,-9.25519 123.74234,17.26315 137.98269,55.13152 11.06312,29.41934 -5.20413,60.04072 -41.32659,77.79289 -22.98465,11.29559 -39.27715,14.92539 -70.18287,15.63579 -14.3515,0.3299 -28.11814,0.2032 -30.59254,-0.2812 z"
         style="fill:#000000;fill-opacity:1;stroke:none" />
      <path
         inkscape:connector-curvature="0"
         id="path4191"
         d="m 198.62873,1002.3137 c 22.73671,-5.66527 40.9106,-14.825 53.17897,-26.80271 29.04621,-28.3582 24.52806,-62.37951 -11.42738,-86.04703 -29.29935,-19.28617 -68.83445,-27.76228 -102.93666,-22.06916 -21.44898,3.58083 -37.33923,7.85936 -30.05326,8.09208 6.38085,0.2038 14.88151,4.54272 16.33847,8.33956 2.19662,5.72423 1.03553,17.91786 -2.07139,21.75337 -6.96702,8.60095 -21.979984,10.60342 -32.303751,4.30873 -6.551346,-3.99453 -8.576828,-9.61544 -7.190175,-19.9536 l 0.950991,-7.09018 -5.45964,3.14986 c -19.529609,11.26741 -33.802251,32.68466 -33.770827,50.67578 0.03107,17.85412 10.778861,35.22937 29.462654,47.63096 16.08522,10.67673 47.463608,21.34964 68.595838,23.33164 13.98055,1.3113 39.79652,-1.1113 56.68616,-5.3193 z"
         style="fill:#000000;fill-opacity:1;stroke:none" />
      <path
         inkscape:connector-curvature="0"
         id="path4189"
         d="m 180.2285,912.43297 c -6.44872,-3.49958 -8.60554,-7.87636 -8.53594,-17.3216 0.0613,-8.28922 1.81164,-11.51764 8.8911,-16.39693 8.75093,-6.03136 27.88297,-2.58666 32.38823,5.83149 1.01911,1.90419 1.85287,6.80784 1.85287,10.89703 0,4.08916 -0.83376,8.99282 -1.85287,10.89702 -4.41299,8.24569 -22.55557,11.62171 -32.74339,6.09299 z"
         style="fill:#ffffff;fill-opacity:1;stroke:#000000;stroke-width:0.96077657;stroke-opacity:1" />
      <path
         inkscape:connector-curvature="0"
         id="path4185"
         d="m 135.23947,905.23472 c -6.4487,-3.4996 -8.60556,-7.87634 -8.53594,-17.32162 0.0611,-8.28918 1.81162,-11.5176 8.8911,-16.39691 8.75097,-6.03136 27.88299,-2.58666 32.38821,5.83151 1.01911,1.90418 1.85293,6.80784 1.85293,10.89702 0,4.08917 -0.83382,8.99281 -1.85293,10.89703 -4.41295,8.24569 -22.55553,11.62171 -32.74337,6.09297 z"
         style="fill:#ffffff;fill-opacity:1;stroke:#000000;stroke-width:0.96077657;stroke-opacity:1" />
      <path
         inkscape:connector-curvature="0"
         id="path4181"
         d="m 114.50724,905.2145 c 4.99857,-4.30778 7.41442,-14.36288 4.803,-19.99039 -3.07547,-6.62741 -5.06379,-7.73981 -13.89814,-7.77555 -9.41026,-0.038 -17.545885,4.40306 -18.909207,10.3222 -1.249638,5.42547 1.469843,13.96998 5.572592,17.5091 4.012099,3.46085 18.388665,3.41898 22.431755,-0.0653 z"
         style="fill:#ffffff;fill-opacity:1;stroke:none" />
      <path
         inkscape:connector-curvature="0"
         id="path4179"
         d="m 539.91801,868.71398 c -3.25335,0.20896 -8.24541,1.80458 -14.68187,4.86395 -16.09436,7.6499 -28.44137,19.74209 -36.17925,35.3986 -5.92123,11.98099 -6.45975,14.30899 -5.73464,24.58988 0.47999,6.80584 2.53147,14.96674 5.10414,20.35645 4.61458,9.6675 17.88305,23.9102 29.8141,32.00588 8.16317,5.53909 31.78907,14.07956 50.59089,18.28476 28.81139,6.4437 90.41781,-0.5485 102.17258,-11.58944 2.96925,-2.78897 11.68351,-8.85133 19.36566,-13.48081 15.45906,-9.31616 21.4856,-16.01206 26.66155,-29.63396 5.57647,-14.67611 4.66674,-26.33844 -3.27265,-41.64366 -3.71161,-7.15505 -8.02762,-13.78256 -9.57774,-14.74191 -2.16471,-1.33967 -10.10164,2.95594 -34.19764,18.55499 -61.05071,39.52239 -67.53224,40.18425 -98.83991,9.81794 -8.41292,-8.16 -18.70508,-16.54858 -22.87848,-18.64507 -11.72977,-5.89233 -14.71344,-15.21397 -7.71624,-24.10949 5.42178,-6.89264 4.79176,-10.37637 -0.6305,-10.02811 z"
         style="fill:#000000;fill-opacity:1;stroke:#000000;stroke-width:0.96077657;stroke-opacity:1" />
      <path
         inkscape:connector-curvature="0"
         id="path4175"
         d="m 315.70289,989.19493 c -19.24381,-5.69579 -35.31066,-11.32174 -35.70414,-12.50221 -0.39347,-1.18044 1.98969,-6.36189 5.29597,-11.51424 5.62062,-8.759 6.00976,-10.36499 5.98615,-24.70537 -0.022,-13.27954 -0.70116,-16.62714 -5.06262,-24.9499 -15.00474,-28.63258 -57.65725,-54.22796 -104.32655,-62.60538 -15.60039,-2.8004 -16.97497,-3.41602 -23.84196,-10.678 -29.2063,-30.88633 -36.0103,-90.11375 -16.90369,-147.14317 5.86461,-17.50469 22.53365,-53.7442 28.71101,-62.41953 2.13452,-2.99761 6.90054,-6.99073 10.59121,-8.87357 15.29495,-7.80287 32.41437,-31.55182 37.73431,-52.34694 1.88985,-7.38722 4.06673,-14.97386 4.83751,-16.85918 1.37401,-3.36084 1.28997,-3.36203 -4.29905,-0.0604 -6.18196,3.65178 -6.23649,3.76617 -9.37929,19.68444 -3.74826,18.98481 -13.19872,32.3083 -27.53328,38.81709 -12.54298,5.69528 -27.71855,3.83784 -53.36261,-6.53131 -16.99183,-6.87067 -22.499,-11.68873 -26.94593,-23.57418 -6.589974,-17.61322 -8.383911,-42.96584 -4.892723,-69.14528 1.649245,-12.36752 4.704163,-28.93326 6.788653,-36.81272 4.3859,-16.57914 5.28198,-46.20903 2.70016,-89.28559 -1.16255,-19.39683 -0.98779,-29.38405 0.66076,-37.76349 2.6952,-13.69951 10.401,-31.27025 17.80972,-40.60972 2.97924,-3.75566 8.25388,-13.71178 11.7214,-22.12474 l 6.30462,-15.29626 -6.13867,-3.17431 c -14.34567,-7.41832 -25.27213,-24.15228 -29.62041,-45.36416 -4.99244,-24.35436 -1.05674,-61.07134 8.53972,-79.66878 6.32503,-12.25747 19.80685,-18.04342 29.83695,-12.80502 2.16187,1.12907 13.64834,9.1131 25.52542,17.74227 32.86982,23.88121 32.36803,23.78767 42.28969,7.8816 3.90719,-6.26392 12.44746,-15.26834 22.49451,-23.7171 13.7157,-11.53378 21.43678,-16.1483 50.41691,-30.1317 23.48622,-11.332457 38.44546,-17.410683 47.68839,-19.376601 30.68053,-6.525641 46.59664,-8.224297 77.57888,-8.279586 l 31.71929,-0.05659 23.55281,7.899669 c 12.95406,4.344801 27.75956,10.189246 32.90108,12.987623 13.08954,7.124245 29.01585,23.202225 46.9469,47.394035 8.43655,11.38221 19.89247,26.36356 25.45756,33.29185 5.56509,6.92834 12.28474,17.86066 14.93251,24.29408 2.64778,6.43343 7.23553,17.36573 10.195,24.29409 10.03104,23.48339 12.26364,35.16737 13.23886,69.28307 0.77817,27.22334 -0.55887,56.75739 -4.21895,93.1918 -1.4155,14.09078 3.58912,31.43278 16.77403,58.12536 6.34882,12.85292 13.6505,29.21106 16.22598,36.35143 2.57552,7.14035 8.69522,21.48538 13.59938,31.87785 16.59147,35.15924 31.02687,75.97243 43.59985,123.26989 5.90683,22.2206 6.32312,23.43147 18.56169,53.98684 17.91727,44.73316 23.71344,73.20145 23.77142,116.75477 0.0297,22.17576 -0.756,30.3699 -4.5716,47.68835 -6.74998,30.6372 -4.95365,27.77926 -16.54975,26.33047 -5.49985,-0.68719 -10.98403,-1.62712 -12.18703,-2.08877 -1.32901,-0.50994 -2.52397,-6.08624 -3.04543,-14.21137 -0.68769,-10.71546 -1.9065,-15.06768 -6.13496,-21.90707 -6.57531,-10.63536 -21.53643,-22.82105 -40.64037,-33.10125 -24.70754,-13.29561 -22.81249,-9.6527 -22.61664,-43.47638 0.18542,-32.01544 -3.15611,-53.46939 -12.32147,-79.10861 -6.98839,-19.54948 -22.5512,-48.72552 -36.21707,-67.89723 -12.18324,-17.0918 -31.21499,-37.85634 -34.69722,-37.85634 -2.97111,0 0.4695,5.09428 13.19058,19.53042 20.49702,23.26049 39.72137,59.10772 48.39596,90.24279 5.13049,18.41461 6.9329,76.61459 2.68734,86.77564 -2.99519,7.16851 -2.23552,6.84162 -32.47235,13.97235 -32.01429,7.54991 -39.66055,15.78064 -44.32725,47.71576 -1.15709,7.91807 -3.22693,16.15206 -4.59966,18.29778 -1.37274,2.14569 -11.63104,8.34592 -22.79623,13.77823 -30.54223,14.86004 -41.9656,26.57178 -46.48872,47.66222 -3.03316,14.14315 0.0702,24.69128 10.90871,37.07694 9.02086,10.30865 12.24358,16.65888 9.60985,18.93568 -0.84065,0.72673 -18.93921,6.33648 -40.219,12.4662 l -38.69058,11.14482 -26.9934,-0.18403 -26.99342,-0.18403 -34.98872,-10.35567 z"
         style="fill:#000000;fill-opacity:1;stroke:none" />
      <path
         inkscape:connector-curvature="0"
         id="path4171"
         d="m 147.09071,790.16463 c -3.45747,-9.00998 12.08641,-26.7055 32.05269,-36.48952 12.0327,-5.89637 53.25835,-20.19264 58.22878,-20.19264 3.63129,0 3.30449,7.18687 -0.54279,11.93645 -3.91623,4.83462 -6.98155,6.36996 -24.31306,12.17758 -20.29198,6.79963 -37.24385,15.85113 -49.07326,26.20274 -10.79319,9.4449 -14.60176,10.92743 -16.35236,6.36539 z"
         style="fill:#ffffff;fill-opacity:1;stroke:#000000;stroke-width:0.96077657;stroke-opacity:1" />
      <path
         inkscape:connector-curvature="0"
         id="path4167"
         d="m 139.85618,764.8763 c -1.65539,-4.31395 4.9778,-15.19518 11.98396,-19.65873 39.0104,-24.85295 49.33658,-29.73071 62.93968,-29.73071 5.81296,0 7.24321,0.64876 7.24321,3.28545 0,4.91316 -6.53219,9.98994 -21.90904,17.02752 -7.59604,3.47653 -17.31367,8.71589 -21.59471,11.64305 -10.17158,6.95471 -33.72694,20.23124 -35.89454,20.23124 -0.93219,0 -2.17803,-1.25902 -2.76856,-2.79782 z"
         style="fill:#ffffff;fill-opacity:1;stroke:#000000;stroke-width:0.96077657;stroke-opacity:1" />
      <path
         inkscape:connector-curvature="0"
         id="path4163"
         d="m 574.73693,753.79824 c -2.47438,-0.43384 -10.16752,-2.88573 -17.09582,-5.44868 -11.41416,-4.22231 -15.68054,-4.73515 -45.43892,-5.46188 -29.51923,-0.72089 -32.84198,-1.11446 -32.84198,-3.89012 0,-1.6985 1.93658,-4.90746 4.30349,-7.13103 4.23066,-3.97452 4.95351,-4.03228 42.73954,-3.41512 33.8032,0.55212 39.73757,1.09446 49.23349,4.49943 5.93855,2.12939 14.23902,4.40601 18.44548,5.05912 9.24747,1.43587 10.02967,5.11443 2.60089,12.23167 -5.02842,4.81752 -10.08295,5.63668 -21.94617,3.55661 z"
         style="fill:#ffffff;fill-opacity:1;stroke:#000000;stroke-width:0.96077657;stroke-opacity:1" />
      <path
         inkscape:connector-curvature="0"
         id="path4159"
         d="m 142.84235,732.4106 c 0,-5.09603 7.50165,-13.59367 15.09737,-17.10181 7.02973,-3.24675 7.10659,-3.36474 1.54707,-2.37566 -7.80223,1.38812 -9.40667,-2.79155 -3.77254,-9.82757 5.38532,-6.72531 10.67965,-9.21342 19.60485,-9.21342 8.42125,0 9.45593,3.52914 3.06457,10.45261 l -4.04901,4.38611 7.57647,-3.82023 c 9.78614,-4.93443 20.31673,-5.18525 20.31673,-0.4839 0,8.24284 -14.94234,17.79335 -40.8578,26.11463 -17.27922,5.54824 -18.52771,5.67423 -18.52771,1.86924 z"
         style="fill:#ffffff;fill-opacity:1;stroke:#000000;stroke-width:0.96077657;stroke-opacity:1" />
      <path
         inkscape:connector-curvature="0"
         id="path4153"
         d="m 568.72664,723.36342 c -13.68564,-5.73876 -32.68908,-8.0393 -49.77607,-6.02585 -7.42318,0.87471 -17.34327,1.62596 -22.04463,1.66941 -7.10499,0.0655 -8.54792,-0.47557 -8.54792,-3.20643 0,-13.88972 39.2929,-19.97501 81.78218,-12.66565 15.13951,2.60449 24.39194,7.64503 24.39194,13.28833 0,5.62966 -5.94397,11.70915 -11.24728,11.50379 -2.22696,-0.0861 -8.77817,-2.13986 -14.55822,-4.5636 z"
         style="fill:#ffffff;fill-opacity:1;stroke:#000000;stroke-width:0.96077657;stroke-opacity:1" />
      <path
         inkscape:connector-curvature="0"
         id="path4149"
         d="m 557.64111,697.34703 c -6.92829,-1.88015 -20.8974,-3.95463 -31.04242,-4.60996 -15.5726,-1.00587 -18.44548,-1.66057 -18.44548,-4.20338 0,-1.65658 1.98408,-4.87596 4.40913,-7.15414 4.27859,-4.01954 5.17101,-4.11632 30.14263,-3.26892 20.79307,0.70561 27.72004,1.63818 36.08098,4.85754 11.56646,4.45367 13.01737,7.78835 6.18249,14.20941 -5.0233,4.71912 -10.4382,4.75272 -27.32733,0.16939 z"
         style="fill:#ffffff;fill-opacity:1;stroke:#000000;stroke-width:0.96077657;stroke-opacity:1" />
      <path
         inkscape:connector-curvature="0"
         id="path4145"
         d="m 557.14696,668.70977 c -8.18987,-2.88283 -19.72953,-5.78892 -25.64377,-6.45802 -8.4341,-0.95422 -10.75308,-1.87497 -10.75308,-4.26957 0,-4.22813 7.01358,-10.26133 13.525,-11.63449 12.43252,-2.6218 53.27934,9.1821 54.54667,15.76289 0.89972,4.67184 -6.57454,12.00117 -12.14907,11.91351 -2.5493,-0.0402 -11.33589,-2.43152 -19.52575,-5.31432 z"
         style="fill:#ffffff;fill-opacity:1;stroke:#000000;stroke-width:0.96077657;stroke-opacity:1" />
      <path
         inkscape:connector-curvature="0"
         id="path4141"
         d="m 548.55333,638.30471 c -0.94027,-0.8803 -6.77086,-3.41821 -12.95683,-5.63981 -12.47837,-4.48132 -14.01498,-7.52765 -7.08227,-14.04062 9.55386,-8.97539 39.02447,-1.05482 39.02447,10.48831 0,7.47497 -13.72286,14.11916 -18.98537,9.19212 z"
         style="fill:#ffffff;fill-opacity:1;stroke:#000000;stroke-width:0.96077657;stroke-opacity:1" />
      <path
         inkscape:connector-curvature="0"
         id="path4137"
         d="m 119.89796,564.94032 c -12.71441,-3.01249 -14.31774,-6.1024 -6.82106,-13.1452 5.14128,-4.82997 14.56472,-5.49264 24.91005,-1.75174 8.04941,2.91071 8.65272,7.20206 1.8933,13.46654 -5.42563,5.02827 -4.94313,4.99376 -19.98229,1.4304 z"
         style="fill:#ffffff;fill-opacity:1;stroke:none" />
      <path
         inkscape:connector-curvature="0"
         id="path4133"
         d="m 210.62582,546.92801 c -2.27024,-2.27025 -1.19278,-12.6534 2.39515,-23.08197 5.00886,-14.55852 14.18631,-30.28258 25.98625,-44.52323 12.90366,-15.57264 29.80438,-24.71743 29.80438,-16.12677 0,4.01787 -8.80857,17.99417 -14.39923,22.84682 -6.64736,5.76988 -17.33808,23.40657 -22.6855,37.42477 -6.41594,16.81913 -16.51455,28.04689 -21.10105,23.46038 z"
         style="fill:#ffffff;fill-opacity:1;stroke:#000000;stroke-width:0.96077657;stroke-opacity:1" />
      <path
         inkscape:connector-curvature="0"
         id="path4129"
         d="m 123.94698,526.55751 c -2.96929,-0.79777 -7.62566,-1.95488 -10.34749,-2.57136 -6.26552,-1.41909 -6.46845,-6.19549 -0.50138,-11.80127 4.06592,-3.81976 5.54564,-4.08607 17.25084,-3.10474 18.23052,1.52839 21.86804,5.4389 13.4791,14.49073 -4.60476,4.96863 -9.67118,5.72973 -19.88107,2.98664 z"
         style="fill:#ffffff;fill-opacity:1;stroke:none" />
      <path
         inkscape:connector-curvature="0"
         id="path4125"
         d="m 132.94475,493.25644 c -3.95901,-1.31991 -9.42518,-2.89101 -12.14701,-3.49133 -6.16832,-1.36043 -6.49404,-6.1421 -0.7838,-11.5066 4.78988,-4.4998 16.98636,-5.11844 29.12688,-1.47734 5.78198,1.73412 7.3082,3.10171 7.75714,6.95093 0.72081,6.18022 -5.22329,12.25528 -11.80616,12.06628 -2.72184,-0.0782 -8.18801,-1.22201 -12.14705,-2.54194 z"
         style="fill:#ffffff;fill-opacity:1;stroke:none" />
      <path
         inkscape:connector-curvature="0"
         id="path4121"
         d="m 141.0428,462.26347 c -16.33553,-3.74464 -19.79517,-5.34554 -19.79517,-9.16019 0,-4.99364 7.56993,-11.15874 13.61268,-11.08641 6.27054,0.075 26.3194,4.22207 29.2913,6.05877 3.54917,2.19353 2.31325,7.38248 -2.96222,12.43669 -2.77598,2.65959 -5.81277,4.74487 -6.74834,4.63401 -0.9356,-0.11081 -6.96485,-1.40816 -13.39825,-2.88287 z"
         style="fill:#ffffff;fill-opacity:1;stroke:#000000;stroke-width:0.96077657;stroke-opacity:1" />
      <path
         inkscape:connector-curvature="0"
         id="path4117"
         d="m 424.47362,437.32423 c -2.96929,-2.47504 -8.43546,-6.23915 -12.14703,-8.3647 -7.77316,-4.45158 -8.47197,-8.15355 -2.58338,-13.68564 7.14678,-6.71403 19.20997,-4.45104 29.57678,5.54841 6.70454,6.46695 7.45621,12.32545 2.24944,17.53223 -4.79138,4.7914 -10.52606,4.4458 -17.09581,-1.0303 z"
         style="fill:#ffffff;fill-opacity:1;stroke:#000000;stroke-width:0.96077657;stroke-opacity:1" />
      <path
         inkscape:connector-curvature="0"
         id="path4113"
         d="m 131.5951,427.08903 c -11.48074,-4.24817 -13.04073,-7.63601 -6.51921,-14.15753 3.31228,-3.31224 5.26186,-3.6983 14.46372,-2.86388 16.53301,1.49913 20.32479,7.17791 10.85241,16.25307 -5.93897,5.68988 -5.54043,5.67357 -18.79692,0.76834 z"
         style="fill:#ffffff;fill-opacity:1;stroke:#000000;stroke-width:0.96077657;stroke-opacity:1" />
      <path
         inkscape:connector-curvature="0"
         id="path4109"
         d="m 431.22196,410.09489 c -9.66019,-2.27169 -11.24723,-3.2135 -11.24723,-6.67413 0,-2.21607 1.99641,-5.90474 4.43652,-8.19713 3.89012,-3.65454 5.61161,-4.02979 13.97755,-3.04652 5.24755,0.61672 13.37366,2.42724 18.05797,4.02337 9.69948,3.30494 10.89789,6.89779 4.35196,13.04737 -4.90242,4.60559 -12.6505,4.82748 -29.57677,0.84704 z"
         style="fill:#ffffff;fill-opacity:1;stroke:#000000;stroke-width:0.96077657;stroke-opacity:1" />
      <path
         inkscape:connector-curvature="0"
         id="path4105"
         d="m 128.44586,395.08954 c -5.44368,-1.88225 -10.10002,-3.4451 -10.34748,-3.47294 -2.20613,-0.24848 0.46885,-7.48463 3.98944,-10.79206 3.84572,-3.61287 5.65537,-4.02652 13.53388,-3.0934 17.80114,2.10827 23.85835,8.40184 16.06765,16.69466 -4.85855,5.1717 -9.79799,5.31271 -23.24349,0.66374 z"
         style="fill:#ffffff;fill-opacity:1;stroke:none" />
      <path
         inkscape:connector-curvature="0"
         id="path4101"
         d="m 456.94356,391.69187 c -0.5689,-0.92047 -5.47551,-2.22851 -10.90359,-2.90669 -11.21547,-1.40128 -12.83254,-4.6053 -5.70423,-11.30205 3.33716,-3.13508 6.34822,-3.9128 15.14911,-3.9128 13.8672,0 16.67712,1.10813 16.67712,6.57693 0,7.25338 -12.16645,16.48279 -15.21841,11.54461 z"
         style="fill:#ffffff;fill-opacity:1;stroke:#000000;stroke-width:0.96077657;stroke-opacity:1" />
      <path
         inkscape:connector-curvature="0"
         id="path4097"
         d="m 255.58299,377.61933 c -0.58534,-5.6911 -1.58329,-14.88944 -2.2176,-20.44072 -1.07762,-9.4305 -0.80116,-10.48744 4.20976,-16.09565 4.82972,-5.40536 6.51842,-6.07595 16.97835,-6.74201 11.30462,-0.71982 11.74879,-0.58083 16.61197,5.19873 6.07072,7.21467 5.52941,14.86861 -1.72409,24.37842 -4.954,6.49511 -27.24714,23.87845 -30.76097,23.98629 -1.16417,0.036 -2.48801,-4.36019 -3.09742,-10.28506 z"
         style="fill:#ffffff;fill-opacity:1;stroke:#000000;stroke-width:0.96077657;stroke-opacity:1" />
      <path
         inkscape:connector-curvature="0"
         id="path4093"
         d="m 278.04091,353.34259 c 1.65146,-3.08579 1.42199,-4.22142 -1.24738,-6.17331 -4.46617,-3.26576 -6.86549,-3.00921 -10.61614,1.13522 -2.40989,2.66292 -2.89657,5.102 -1.98626,9.95445 l 1.20576,6.42732 5.31016,-3.78115 c 2.92057,-2.07962 6.2208,-5.48277 7.33386,-7.56253 z"
         style="fill:#000000;fill-opacity:1;stroke:#000000;stroke-width:0.96077657;stroke-opacity:1" />
      <path
         inkscape:connector-curvature="0"
         id="path4089"
         d="m 452.3668,363.08663 c 0,-6.36981 7.53645,-11.11103 17.6617,-11.11103 7.83502,0 9.33171,0.52695 9.33171,3.28543 0,6.36985 -7.53643,11.11105 -17.6617,11.11105 -7.835,0 -9.33171,-0.52696 -9.33171,-3.28545 z"
         style="fill:#ffffff;fill-opacity:1;stroke:#000000;stroke-width:0.96077657;stroke-opacity:1" />
      <path
         inkscape:connector-curvature="0"
         id="path4085"
         d="m 436.17076,252.22122 c 0,-1.41794 1.58895,-3.08236 3.53102,-3.69875 4.81219,-1.52735 24.20816,-22.95918 27.98913,-30.927 3.9243,-8.26985 2.77471,-15.44941 -5.10885,-31.90656 -7.20681,-15.04439 -17.56943,-27.28076 -29.69006,-35.05855 -9.77228,-6.27085 -17.33484,-7.20526 -19.87015,-2.45501 -2.36728,4.43543 -3.84548,18.47823 -5.44602,51.73735 -1.12373,23.35071 -2.10462,30.40864 -5.18953,37.34089 -2.50986,5.63993 -4.9097,8.54748 -7.05437,8.54671 -3.04694,-8.3e-4 -3.28784,-3.31569 -3.84837,-52.95295 -0.68052,-60.26237 -0.0507,-63.84973 12.10221,-68.92752 22.71588,-9.49131 60.28264,13.69085 77.01435,47.52494 6.38983,12.92123 6.84876,14.91966 6.72115,29.26609 -0.34589,38.87626 -12.04479,54.04694 -41.70281,54.07842 -7.0054,0.008 -9.4477,-0.65644 -9.4477,-2.56806 z"
         style="fill:#ffffff;fill-opacity:1;stroke:#000000;stroke-width:0.96077657;stroke-opacity:1" />
      <path
         inkscape:connector-curvature="0"
         id="path4081"
         d="m 413.30787,237.82526 c 0.55129,-3.39716 4.36873,-11.69764 8.48325,-18.4455 7.25024,-11.89052 7.44901,-12.6295 6.44689,-23.96596 -0.56872,-6.43342 -1.53782,-14.329 -2.15356,-17.54572 -0.98364,-5.13845 -0.64775,-5.84858 2.76662,-5.84858 5.52704,0 12.67734,15.82043 12.70079,28.10133 0.0307,16.03745 -16.75227,43.88112 -26.44959,43.88112 -2.18072,0 -2.57596,-1.36045 -1.7944,-6.17669 z"
         style="fill:#ffffff;fill-opacity:1;stroke:#000000;stroke-width:0.96077657;stroke-opacity:1" />
      <path
         inkscape:connector-curvature="0"
         id="path4077"
         d="m 164.43708,209.5692 c 0,-5.39845 4.63298,-16.38915 9.29032,-22.03935 8.15935,-9.89866 21.32542,-15.31961 21.28078,-8.76201 -0.0388,5.68475 -11.86629,24.65815 -17.94885,28.79302 -6.38805,4.34252 -12.62225,5.33443 -12.62225,2.00834 z"
         style="fill:#ffffff;fill-opacity:1;stroke:#000000;stroke-width:0.96077657;stroke-opacity:1" />
      <path
         inkscape:connector-curvature="0"
         id="path4073"
         d="m 249.01643,539.81291 c 6.43345,-2.62695 24.14468,-9.07868 39.35836,-14.33719 40.29247,-13.92688 95.94124,-41.91858 110.90368,-55.78533 5.32666,-4.93657 5.77529,-11.36691 1.18818,-17.0317 l -3.31199,-4.09014 -5.51976,7.93982 c -17.54922,25.24329 -38.12188,36.45307 -100.54417,54.7852 -33.20239,9.75083 -46.77329,16.34674 -56.59843,27.50869 -8.31857,9.45038 -8.94927,11.93909 -2.1218,8.37225 2.72184,-1.42195 10.2125,-4.73469 16.64593,-7.3616 z"
         style="fill:#ffffff;fill-opacity:1;stroke:#000000;stroke-width:0.96077657;stroke-opacity:1" />
      <path
         inkscape:connector-curvature="0"
         id="path4071"
         d="m 586.43409,929.87635 c -9.14575,-4.16526 -18.02322,-14.01371 -26.83414,-29.76914 -6.55368,-11.71909 -7.01968,-13.59434 -8.43319,-33.93687 -1.75066,-25.19458 -0.0645,-35.75478 7.342,-45.97901 2.89197,-3.99223 8.76163,-8.81951 13.53178,-11.1287 17.41765,-8.43178 53.51496,-1.4417 84.77266,16.41579 25.34228,14.478 36.69474,27.76795 36.69474,42.95721 0,10.5009 -3.90534,18.44553 -14.65396,29.81064 -25.37235,26.82749 -69.67388,41.98942 -92.41989,31.63008 z"
         style="fill:#000000;fill-opacity:1;stroke:#000000;stroke-width:0.96077657;stroke-opacity:1" />
      <path
         inkscape:connector-curvature="0"
         id="path4067"
         d="m 44.96306,884.96398 c -2.358263,-3.81576 -4.668776,-26.6698 -4.671468,-46.20719 -0.0079,-56.40549 17.145503,-111.87577 56.828194,-183.77067 6.490204,-11.75861 13.447624,-25.19928 15.460994,-29.8682 2.01335,-4.66889 5.19932,-8.97728 7.08001,-9.57418 3.17123,-1.00652 36.71586,3.82116 39.80143,5.72811 4.04577,2.50044 0.45444,15.00228 -11.91452,41.47568 -20.74349,44.39743 -30.19716,74.19574 -32.71761,103.12705 -1.6625,19.08307 1.8574,44.68884 8.38369,60.98742 2.98479,7.45418 5.16644,15.9285 4.86975,18.91597 -0.48832,4.91716 -1.85407,5.96856 -14.93393,11.49625 -7.91807,3.34626 -25.491539,11.27866 -39.052195,17.62749 -25.269927,11.83099 -27.553707,12.61974 -29.134345,10.06227 z"
         style="fill:#000000;fill-opacity:1;stroke:none" />
    </g>
  </g>
</svg>
