<?xml version="1.0" encoding="UTF-8" standalone="no"?>
<!-- Created with Inkscape (http://www.inkscape.org/) -->

<svg
   xmlns:dc="http://purl.org/dc/elements/1.1/"
   xmlns:cc="http://creativecommons.org/ns#"
   xmlns:rdf="http://www.w3.org/1999/02/22-rdf-syntax-ns#"
   xmlns:svg="http://www.w3.org/2000/svg"
   xmlns="http://www.w3.org/2000/svg"
   xmlns:sodipodi="http://sodipodi.sourceforge.net/DTD/sodipodi-0.dtd"
   xmlns:inkscape="http://www.inkscape.org/namespaces/inkscape"
   width="720.375"
   height="157.0031"
   id="svg3070"
   version="1.1"
   inkscape:version="0.48.4 r9939"
   sodipodi:docname="tapiSoft.svg">
  <defs
     id="defs3072" />
  <sodipodi:namedview
     id="base"
     pagecolor="#ffffff"
     bordercolor="#666666"
     borderopacity="1.0"
     inkscape:pageopacity="0.0"
     inkscape:pageshadow="2"
     inkscape:zoom="0.85888382"
     inkscape:cx="49.255299"
     inkscape:cy="344.11968"
     inkscape:document-units="px"
     inkscape:current-layer="layer1"
     showgrid="false"
     showguides="true"
     inkscape:guide-bbox="true"
     fit-margin-top="0"
     fit-margin-left="0"
     fit-margin-right="0"
     fit-margin-bottom="0"
     inkscape:snap-page="true"
     inkscape:object-paths="false"
     inkscape:snap-nodes="true"
     inkscape:window-width="1918"
     inkscape:window-height="1176"
     inkscape:window-x="1920"
     inkscape:window-y="0"
     inkscape:window-maximized="0" />
  <metadata
     id="metadata3075">
    <rdf:RDF>
      <cc:Work
         rdf:about="">
        <dc:format>image/svg+xml</dc:format>
        <dc:type
           rdf:resource="http://purl.org/dc/dcmitype/StillImage" />
      </cc:Work>
    </rdf:RDF>
  </metadata>
  <g
     inkscape:label="Layer 1"
     inkscape:groupmode="layer"
     id="layer1"
     transform="translate(-70.34375,-386.1631)">
    <rect
       style="fill:#ff0000;fill-opacity:1;fill-rule:nonzero;stroke:#000000;stroke-width:0.94534147;stroke-linecap:butt;stroke-opacity:1"
       id="rect3191"
       width="719.43524"
       height="10.156183"
       x="70.815979"
       y="525.38123" />
    <g
       id="g4215"
       transform="matrix(0.14784205,0,0,0.14784205,331.78731,375.08303)">
      <path
         inkscape:connector-curvature="0"
         id="path4193"
         d="M 130.24543,1011.275 C 88.473402,1003.0955 55.803819,983.79972 44.396023,960.56923 40.245564,952.1174 39.368641,947.973 39.37347,936.83286 c 0.0059,-11.93977 0.714599,-14.80509 6.14976,-24.83868 14.274918,-26.35209 41.484089,-41.35861 88.84151,-48.99818 57.37248,-9.25519 123.74234,17.26315 137.98269,55.13152 11.06312,29.41934 -5.20413,60.04072 -41.32659,77.79289 -22.98465,11.29559 -39.27715,14.92539 -70.18287,15.63579 -14.3515,0.3299 -28.11814,0.2032 -30.59254,-0.2812 z"
         style="fill:#000000;fill-opacity:1;stroke:none" />
      <path
         inkscape:connector-curvature="0"
         id="path4191"
         d="m 198.62873,1002.3137 c 22.73671,-5.66527 40.9106,-14.825 53.17897,-26.80271 29.04621,-28.3582 24.52806,-62.37951 -11.42738,-86.04703 -29.29935,-19.28617 -68.83445,-27.76228 -102.93666,-22.06916 -21.44898,3.58083 -37.33923,7.85936 -30.05326,8.09208 6.38085,0.2038 14.88151,4.54272 16.33847,8.33956 2.19662,5.72423 1.03553,17.91786 -2.07139,21.75337 -6.96702,8.60095 -21.979984,10.60342 -32.303751,4.30873 -6.551346,-3.99453 -8.576828,-9.61544 -7.190175,-19.9536 l 0.950991,-7.09018 -5.45964,3.14986 c -19.529609,11.26741 -33.802251,32.68466 -33.770827,50.67578 0.03107,17.85412 10.778861,35.22937 29.462654,47.63096 16.08522,10.67673 47.463608,21.34964 68.595838,23.33164 13.98055,1.3113 39.79652,-1.1113 56.68616,-5.3193 z"
         style="fill:#000000;fill-opacity:1;stroke:none" />
      <path
         inkscape:connector-curvature="0"
         id="path4189"
         d="m 180.2285,912.43297 c -6.44872,-3.49958 -8.60554,-7.87636 -8.53594,-17.3216 0.0613,-8.28922 1.81164,-11.51764 8.8911,-16.39693 8.75093,-6.03136 27.88297,-2.58666 32.38823,5.83149 1.01911,1.90419 1.85287,6.80784 1.85287,10.89703 0,4.08916 -0.83376,8.99282 -1.85287,10.89702 -4.41299,8.24569 -22.55557,11.62171 -32.74339,6.09299 z"
         style="fill:#ffffff;fill-opacity:1;stroke:#000000;stroke-width:0.96077657;stroke-opacity:1" />
      <path
         inkscape:connector-curvature="0"
         id="path4185"
         d="m 135.23947,905.23472 c -6.4487,-3.4996 -8.60556,-7.87634 -8.53594,-17.32162 0.0611,-8.28918 1.81162,-11.5176 8.8911,-16.39691 8.75097,-6.03136 27.88299,-2.58666 32.38821,5.83151 1.01911,1.90418 1.85293,6.80784 1.85293,10.89702 0,4.08917 -0.83382,8.99281 -1.85293,10.89703 -4.41295,8.24569 -22.55553,11.62171 -32.74337,6.09297 z"
         style="fill:#ffffff;fill-opacity:1;stroke:#000000;stroke-width:0.96077657;stroke-opacity:1" />
      <path
         inkscape:connector-curvature="0"
         id="path4181"
         d="m 114.50724,905.2145 c 4.99857,-4.30778 7.41442,-14.36288 4.803,-19.99039 -3.07547,-6.62741 -5.06379,-7.73981 -13.89814,-7.77555 -9.41026,-0.038 -17.545885,4.40306 -18.909207,10.3222 -1.249638,5.42547 1.469843,13.96998 5.572592,17.5091 4.012099,3.46085 18.388665,3.41898 22.431755,-0.0653 z"
         style="fill:#ffffff;fill-opacity:1;stroke:none" />
      <path
         inkscape:connector-curvature="0"
         id="path4179"
         d="m 539.91801,868.71398 c -3.25335,0.20896 -8.24541,1.80458 -14.68187,4.86395 -16.09436,7.6499 -28.44137,19.74209 -36.17925,35.3986 -5.92123,11.98099 -6.45975,14.30899 -5.73464,24.58988 0.47999,6.80584 2.53147,14.96674 5.10414,20.35645 4.61458,9.6675 17.88305,23.9102 29.8141,32.00588 8.16317,5.53909 31.78907,14.07956 50.59089,18.28476 28.81139,6.4437 90.41781,-0.5485 102.17258,-11.58944 2.96925,-2.78897 11.68351,-8.85133 19.36566,-13.48081 15.45906,-9.31616 21.4856,-16.01206 26.66155,-29.63396 5.57647,-14.67611 4.66674,-26.33844 -3.27265,-41.64366 -3.71161,-7.15505 -8.02762,-13.78256 -9.57774,-14.74191 -2.16471,-1.33967 -10.10164,2.95594 -34.19764,18.55499 -61.05071,39.52239 -67.53224,40.18425 -98.83991,9.81794 -8.41292,-8.16 -18.70508,-16.54858 -22.87848,-18.64507 -11.72977,-5.89233 -14.71344,-15.21397 -7.71624,-24.10949 5.42178,-6.89264 4.79176,-10.37637 -0.6305,-10.02811 z"
         style="fill:#000000;fill-opacity:1;stroke:#000000;stroke-width:0.96077657;stroke-opacity:1" />
      <path
         inkscape:connector-curvature="0"
         id="path4175"
         d="m 315.70289,989.19493 c -19.24381,-5.69579 -35.31066,-11.32174 -35.70414,-12.50221 -0.39347,-1.18044 1.98969,-6.36189 5.29597,-11.51424 5.62062,-8.759 6.00976,-10.36499 5.98615,-24.70537 -0.022,-13.27954 -0.70116,-16.62714 -5.06262,-24.9499 -15.00474,-28.63258 -57.65725,-54.22796 -104.32655,-62.60538 -15.60039,-2.8004 -16.97497,-3.41602 -23.84196,-10.678 -29.2063,-30.88633 -36.0103,-90.11375 -16.90369,-147.14317 5.86461,-17.50469 22.53365,-53.7442 28.71101,-62.41953 2.13452,-2.99761 6.90054,-6.99073 10.59121,-8.87357 15.29495,-7.80287 32.41437,-31.55182 37.73431,-52.34694 1.88985,-7.38722 4.06673,-14.97386 4.83751,-16.85918 1.37401,-3.36084 1.28997,-3.36203 -4.29905,-0.0604 -6.18196,3.65178 -6.23649,3.76617 -9.37929,19.68444 -3.74826,18.98481 -13.19872,32.3083 -27.53328,38.81709 -12.54298,5.69528 -27.71855,3.83784 -53.36261,-6.53131 -16.99183,-6.87067 -22.499,-11.68873 -26.94593,-23.57418 -6.589974,-17.61322 -8.383911,-42.96584 -4.892723,-69.14528 1.649245,-12.36752 4.704163,-28.93326 6.788653,-36.81272 4.3859,-16.57914 5.28198,-46.20903 2.70016,-89.28559 -1.16255,-19.39683 -0.98779,-29.38405 0.66076,-37.76349 2.6952,-13.69951 10.401,-31.27025 17.80972,-40.60972 2.97924,-3.75566 8.25388,-13.71178 11.7214,-22.12474 l 6.30462,-15.29626 -6.13867,-3.17431 c -14.34567,-7.41832 -25.27213,-24.15228 -29.62041,-45.36416 -4.99244,-24.35436 -1.05674,-61.07134 8.53972,-79.66878 6.32503,-12.25747 19.80685,-18.04342 29.83695,-12.80502 2.16187,1.12907 13.64834,9.1131 25.52542,17.74227 32.86982,23.88121 32.36803,23.78767 42.28969,7.8816 3.90719,-6.26392 12.44746,-15.26834 22.49451,-23.7171 13.7157,-11.53378 21.43678,-16.1483 50.41691,-30.1317 23.48622,-11.332457 38.44546,-17.410683 47.68839,-19.376601 30.68053,-6.525641 46.59664,-8.224297 77.57888,-8.279586 l 31.71929,-0.05659 23.55281,7.899669 c 12.95406,4.344801 27.75956,10.189246 32.90108,12.987623 13.08954,7.124245 29.01585,23.202225 46.9469,47.394035 8.43655,11.38221 19.89247,26.36356 25.45756,33.29185 5.56509,6.92834 12.28474,17.86066 14.93251,24.29408 2.64778,6.43343 7.23553,17.36573 10.195,24.29409 10.03104,23.48339 12.26364,35.16737 13.23886,69.28307 0.77817,27.22334 -0.55887,56.75739 -4.21895,93.1918 -1.4155,14.09078 3.58912,31.43278 16.77403,58.12536 6.34882,12.85292 13.6505,29.21106 16.22598,36.35143 2.57552,7.14035 8.69522,21.48538 13.59938,31.87785 16.59147,35.15924 31.02687,75.97243 43.59985,123.26989 5.90683,22.2206 6.32312,23.43147 18.56169,53.98684 17.91727,44.73316 23.71344,73.20145 23.77142,116.75477 0.0297,22.17576 -0.756,30.3699 -4.5716,47.68835 -6.74998,30.6372 -4.95365,27.77926 -16.54975,26.33047 -5.49985,-0.68719 -10.98403,-1.62712 -12.18703,-2.08877 -1.32901,-0.50994 -2.52397,-6.08624 -3.04543,-14.21137 -0.68769,-10.71546 -1.9065,-15.06768 -6.13496,-21.90707 -6.57531,-10.63536 -21.53643,-22.82105 -40.64037,-33.10125 -24.70754,-13.29561 -22.81249,-9.6527 -22.61664,-43.47638 0.18542,-32.01544 -3.15611,-53.46939 -12.32147,-79.10861 -6.98839,-19.54948 -22.5512,-48.72552 -36.21707,-67.89723 -12.18324,-17.0918 -31.21499,-37.85634 -34.69722,-37.85634 -2.97111,0 0.4695,5.09428 13.19058,19.53042 20.49702,23.26049 39.72137,59.10772 48.39596,90.24279 5.13049,18.41461 6.9329,76.61459 2.68734,86.77564 -2.99519,7.16851 -2.23552,6.84162 -32.47235,13.97235 -32.01429,7.54991 -39.66055,15.78064 -44.32725,47.71576 -1.15709,7.91807 -3.22693,16.15206 -4.59966,18.29778 -1.37274,2.14569 -11.63104,8.34592 -22.79623,13.77823 -30.54223,14.86004 -41.9656,26.57178 -46.48872,47.66222 -3.03316,14.14315 0.0702,24.69128 10.90871,37.07694 9.02086,10.30865 12.24358,16.65888 9.60985,18.93568 -0.84065,0.72673 -18.93921,6.33648 -40.219,12.4662 l -38.69058,11.14482 -26.9934,-0.18403 -26.99342,-0.18403 -34.98872,-10.35567 z"
         style="fill:#000000;fill-opacity:1;stroke:none" />
      <path
         inkscape:connector-curvature="0"
         id="path4171"
         d="m 147.09071,790.16463 c -3.45747,-9.00998 12.08641,-26.7055 32.05269,-36.48952 12.0327,-5.89637 53.25835,-20.19264 58.22878,-20.19264 3.63129,0 3.30449,7.18687 -0.54279,11.93645 -3.91623,4.83462 -6.98155,6.36996 -24.31306,12.17758 -20.29198,6.79963 -37.24385,15.85113 -49.07326,26.20274 -10.79319,9.4449 -14.60176,10.92743 -16.35236,6.36539 z"
         style="fill:#ffffff;fill-opacity:1;stroke:#000000;stroke-width:0.96077657;stroke-opacity:1" />
      <path
         inkscape:connector-curvature="0"
         id="path4167"
         d="m 139.85618,764.8763 c -1.65539,-4.31395 4.9778,-15.19518 11.98396,-19.65873 39.0104,-24.85295 49.33658,-29.73071 62.93968,-29.73071 5.81296,0 7.24321,0.64876 7.24321,3.28545 0,4.91316 -6.53219,9.98994 -21.90904,17.02752 -7.59604,3.47653 -17.31367,8.71589 -21.59471,11.64305 -10.17158,6.95471 -33.72694,20.23124 -35.89454,20.23124 -0.93219,0 -2.17803,-1.25902 -2.76856,-2.79782 z"
         style="fill:#ffffff;fill-opacity:1;stroke:#000000;stroke-width:0.96077657;stroke-opacity:1" />
      <path
         inkscape:connector-curvature="0"
         id="path4163"
         d="m 574.73693,753.79824 c -2.47438,-0.43384 -10.16752,-2.88573 -17.09582,-5.44868 -11.41416,-4.22231 -15.68054,-4.73515 -45.43892,-5.46188 -29.51923,-0.72089 -32.84198,-1.11446 -32.84198,-3.89012 0,-1.6985 1.93658,-4.90746 4.30349,-7.13103 4.23066,-3.97452 4.95351,-4.03228 42.73954,-3.41512 33.8032,0.55212 39.73757,1.09446 49.23349,4.49943 5.93855,2.12939 14.23902,4.40601 18.44548,5.05912 9.24747,1.43587 10.02967,5.11443 2.60089,12.23167 -5.02842,4.81752 -10.08295,5.63668 -21.94617,3.55661 z"
         style="fill:#ffffff;fill-opacity:1;stroke:#000000;stroke-width:0.96077657;stroke-opacity:1" />
      <path
         inkscape:connector-curvature="0"
         id="path4159"
         d="m 142.84235,732.4106 c 0,-5.09603 7.50165,-13.59367 15.09737,-17.10181 7.02973,-3.24675 7.10659,-3.36474 1.54707,-2.37566 -7.80223,1.38812 -9.40667,-2.79155 -3.77254,-9.82757 5.38532,-6.72531 10.67965,-9.21342 19.60485,-9.21342 8.42125,0 9.45593,3.52914 3.06457,10.45261 l -4.04901,4.38611 7.57647,-3.82023 c 9.78614,-4.93443 20.31673,-5.18525 20.31673,-0.4839 0,8.24284 -14.94234,17.79335 -40.8578,26.11463 -17.27922,5.54824 -18.52771,5.67423 -18.52771,1.86924 z"
         style="fill:#ffffff;fill-opacity:1;stroke:#000000;stroke-width:0.96077657;stroke-opacity:1" />
      <path
         inkscape:connector-curvature="0"
         id="path4153"
         d="m 568.72664,723.36342 c -13.68564,-5.73876 -32.68908,-8.0393 -49.77607,-6.02585 -7.42318,0.87471 -17.34327,1.62596 -22.04463,1.66941 -7.10499,0.0655 -8.54792,-0.47557 -8.54792,-3.20643 0,-13.88972 39.2929,-19.97501 81.78218,-12.66565 15.13951,2.60449 24.39194,7.64503 24.39194,13.28833 0,5.62966 -5.94397,11.70915 -11.24728,11.50379 -2.22696,-0.0861 -8.77817,-2.13986 -14.55822,-4.5636 z"
         style="fill:#ffffff;fill-opacity:1;stroke:#000000;stroke-width:0.96077657;stroke-opacity:1" />
      <path
         inkscape:connector-curvature="0"
         id="path4149"
         d="m 557.64111,697.34703 c -6.92829,-1.88015 -20.8974,-3.95463 -31.04242,-4.60996 -15.5726,-1.00587 -18.44548,-1.66057 -18.44548,-4.20338 0,-1.65658 1.98408,-4.87596 4.40913,-7.15414 4.27859,-4.01954 5.17101,-4.11632 30.14263,-3.26892 20.79307,0.70561 27.72004,1.63818 36.08098,4.85754 11.56646,4.45367 13.01737,7.78835 6.18249,14.20941 -5.0233,4.71912 -10.4382,4.75272 -27.32733,0.16939 z"
         style="fill:#ffffff;fill-opacity:1;stroke:#000000;stroke-width:0.96077657;stroke-opacity:1" />
      <path
         inkscape:connector-curvature="0"
         id="path4145"
         d="m 557.14696,668.70977 c -8.18987,-2.88283 -19.72953,-5.78892 -25.64377,-6.45802 -8.4341,-0.95422 -10.75308,-1.87497 -10.75308,-4.26957 0,-4.22813 7.01358,-10.26133 13.525,-11.63449 12.43252,-2.6218 53.27934,9.1821 54.54667,15.76289 0.89972,4.67184 -6.57454,12.00117 -12.14907,11.91351 -2.5493,-0.0402 -11.33589,-2.43152 -19.52575,-5.31432 z"
         style="fill:#ffffff;fill-opacity:1;stroke:#000000;stroke-width:0.96077657;stroke-opacity:1" />
      <path
         inkscape:connector-curvature="0"
         id="path4141"
         d="m 548.55333,638.30471 c -0.94027,-0.8803 -6.77086,-3.41821 -12.95683,-5.63981 -12.47837,-4.48132 -14.01498,-7.52765 -7.08227,-14.04062 9.55386,-8.97539 39.02447,-1.05482 39.02447,10.48831 0,7.47497 -13.72286,14.11916 -18.98537,9.19212 z"
         style="fill:#ffffff;fill-opacity:1;stroke:#000000;stroke-width:0.96077657;stroke-opacity:1" />
      <path
         inkscape:connector-curvature="0"
         id="path4137"
         d="m 119.89796,564.94032 c -12.71441,-3.01249 -14.31774,-6.1024 -6.82106,-13.1452 5.14128,-4.82997 14.56472,-5.49264 24.91005,-1.75174 8.04941,2.91071 8.65272,7.20206 1.8933,13.46654 -5.42563,5.02827 -4.94313,4.99376 -19.98229,1.4304 z"
         style="fill:#ffffff;fill-opacity:1;stroke:none" />
      <path
         inkscape:connector-curvature="0"
         id="path4133"
         d="m 210.62582,546.92801 c -2.27024,-2.27025 -1.19278,-12.6534 2.39515,-23.08197 5.00886,-14.55852 14.18631,-30.28258 25.98625,-44.52323 12.90366,-15.57264 29.80438,-24.71743 29.80438,-16.12677 0,4.01787 -8.80857,17.99417 -14.39923,22.84682 -6.64736,5.76988 -17.33808,23.40657 -22.6855,37.42477 -6.41594,16.81913 -16.51455,28.04689 -21.10105,23.46038 z"
         style="fill:#ffffff;fill-opacity:1;stroke:#000000;stroke-width:0.96077657;stroke-opacity:1" />
      <path
         inkscape:connector-curvature="0"
         id="path4129"
         d="m 123.94698,526.55751 c -2.96929,-0.79777 -7.62566,-1.95488 -10.34749,-2.57136 -6.26552,-1.41909 -6.46845,-6.19549 -0.50138,-11.80127 4.06592,-3.81976 5.54564,-4.08607 17.25084,-3.10474 18.23052,1.52839 21.86804,5.4389 13.4791,14.49073 -4.60476,4.96863 -9.67118,5.72973 -19.88107,2.98664 z"
         style="fill:#ffffff;fill-opacity:1;stroke:none" />
      <path
         inkscape:connector-curvature="0"
         id="path4125"
         d="m 132.94475,493.25644 c -3.95901,-1.31991 -9.42518,-2.89101 -12.14701,-3.49133 -6.16832,-1.36043 -6.49404,-6.1421 -0.7838,-11.5066 4.78988,-4.4998 16.98636,-5.11844 29.12688,-1.47734 5.78198,1.73412 7.3082,3.10171 7.75714,6.95093 0.72081,6.18022 -5.22329,12.25528 -11.80616,12.06628 -2.72184,-0.0782 -8.18801,-1.22201 -12.14705,-2.54194 z"
         style="fill:#ffffff;fill-opacity:1;stroke:none" />
      <path
         inkscape:connector-curvature="0"
         id="path4121"
         d="m 141.0428,462.26347 c -16.33553,-3.74464 -19.79517,-5.34554 -19.79517,-9.16019 0,-4.99364 7.56993,-11.15874 13.61268,-11.08641 6.27054,0.075 26.3194,4.22207 29.2913,6.05877 3.54917,2.19353 2.31325,7.38248 -2.96222,12.43669 -2.77598,2.65959 -5.81277,4.74487 -6.74834,4.63401 -0.9356,-0.11081 -6.96485,-1.40816 -13.39825,-2.88287 z"
         style="fill:#ffffff;fill-opacity:1;stroke:#000000;stroke-width:0.96077657;stroke-opacity:1" />
      <path
         inkscape:connector-curvature="0"
         id="path4117"
         d="m 424.47362,437.32423 c -2.96929,-2.47504 -8.43546,-6.23915 -12.14703,-8.3647 -7.77316,-4.45158 -8.47197,-8.15355 -2.58338,-13.68564 7.14678,-6.71403 19.20997,-4.45104 29.57678,5.54841 6.70454,6.46695 7.45621,12.32545 2.24944,17.53223 -4.79138,4.7914 -10.52606,4.4458 -17.09581,-1.0303 z"
         style="fill:#ffffff;fill-opacity:1;stroke:#000000;stroke-width:0.96077657;stroke-opacity:1" />
      <path
         inkscape:connector-curvature="0"
         id="path4113"
         d="m 131.5951,427.08903 c -11.48074,-4.24817 -13.04073,-7.63601 -6.51921,-14.15753 3.31228,-3.31224 5.26186,-3.6983 14.46372,-2.86388 16.53301,1.49913 20.32479,7.17791 10.85241,16.25307 -5.93897,5.68988 -5.54043,5.67357 -18.79692,0.76834 z"
         style="fill:#ffffff;fill-opacity:1;stroke:#000000;stroke-width:0.96077657;stroke-opacity:1" />
      <path
         inkscape:connector-curvature="0"
         id="path4109"
         d="m 431.22196,410.09489 c -9.66019,-2.27169 -11.24723,-3.2135 -11.24723,-6.67413 0,-2.21607 1.99641,-5.90474 4.43652,-8.19713 3.89012,-3.65454 5.61161,-4.02979 13.97755,-3.04652 5.24755,0.61672 13.37366,2.42724 18.05797,4.02337 9.69948,3.30494 10.89789,6.89779 4.35196,13.04737 -4.90242,4.60559 -12.6505,4.82748 -29.57677,0.84704 z"
         style="fill:#ffffff;fill-opacity:1;stroke:#000000;stroke-width:0.96077657;stroke-opacity:1" />
      <path
         inkscape:connector-curvature="0"
         id="path4105"
         d="m 128.44586,395.08954 c -5.44368,-1.88225 -10.10002,-3.4451 -10.34748,-3.47294 -2.20613,-0.24848 0.46885,-7.48463 3.98944,-10.79206 3.84572,-3.61287 5.65537,-4.02652 13.53388,-3.0934 17.80114,2.10827 23.85835,8.40184 16.06765,16.69466 -4.85855,5.1717 -9.79799,5.31271 -23.24349,0.66374 z"
         style="fill:#ffffff;fill-opacity:1;stroke:none" />
      <path
         inkscape:connector-curvature="0"
         id="path4101"
         d="m 456.94356,391.69187 c -0.5689,-0.92047 -5.47551,-2.22851 -10.90359,-2.90669 -11.21547,-1.40128 -12.83254,-4.6053 -5.70423,-11.30205 3.33716,-3.13508 6.34822,-3.9128 15.14911,-3.9128 13.8672,0 16.67712,1.10813 16.67712,6.57693 0,7.25338 -12.16645,16.48279 -15.21841,11.54461 z"
         style="fill:#ffffff;fill-opacity:1;stroke:#000000;stroke-width:0.96077657;stroke-opacity:1" />
      <path
         inkscape:connector-curvature="0"
         id="path4097"
         d="m 255.58299,377.61933 c -0.58534,-5.6911 -1.58329,-14.88944 -2.2176,-20.44072 -1.07762,-9.4305 -0.80116,-10.48744 4.20976,-16.09565 4.82972,-5.40536 6.51842,-6.07595 16.97835,-6.74201 11.30462,-0.71982 11.74879,-0.58083 16.61197,5.19873 6.07072,7.21467 5.52941,14.86861 -1.72409,24.37842 -4.954,6.49511 -27.24714,23.87845 -30.76097,23.98629 -1.16417,0.036 -2.48801,-4.36019 -3.09742,-10.28506 z"
         style="fill:#ffffff;fill-opacity:1;stroke:#000000;stroke-width:0.96077657;stroke-opacity:1" />
      <path
         inkscape:connector-curvature="0"
         id="path4093"
         d="m 278.04091,353.34259 c 1.65146,-3.08579 1.42199,-4.22142 -1.24738,-6.17331 -4.46617,-3.26576 -6.86549,-3.00921 -10.61614,1.13522 -2.40989,2.66292 -2.89657,5.102 -1.98626,9.95445 l 1.20576,6.42732 5.31016,-3.78115 c 2.92057,-2.07962 6.2208,-5.48277 7.33386,-7.56253 z"
         style="fill:#000000;fill-opacity:1;stroke:#000000;stroke-width:0.96077657;stroke-opacity:1" />
      <path
         inkscape:connector-curvature="0"
         id="path4089"
         d="m 452.3668,363.08663 c 0,-6.36981 7.53645,-11.11103 17.6617,-11.11103 7.83502,0 9.33171,0.52695 9.33171,3.28543 0,6.36985 -7.53643,11.11105 -17.6617,11.11105 -7.835,0 -9.33171,-0.52696 -9.33171,-3.28545 z"
         style="fill:#ffffff;fill-opacity:1;stroke:#000000;stroke-width:0.96077657;stroke-opacity:1" />
      <path
         inkscape:connector-curvature="0"
         id="path4085"
         d="m 436.17076,252.22122 c 0,-1.41794 1.58895,-3.08236 3.53102,-3.69875 4.81219,-1.52735 24.20816,-22.95918 27.98913,-30.927 3.9243,-8.26985 2.77471,-15.44941 -5.10885,-31.90656 -7.20681,-15.04439 -17.56943,-27.28076 -29.69006,-35.05855 -9.77228,-6.27085 -17.33484,-7.20526 -19.87015,-2.45501 -2.36728,4.43543 -3.84548,18.47823 -5.44602,51.73735 -1.12373,23.35071 -2.10462,30.40864 -5.18953,37.34089 -2.50986,5.63993 -4.9097,8.54748 -7.05437,8.54671 -3.04694,-8.3e-4 -3.28784,-3.31569 -3.84837,-52.95295 -0.68052,-60.26237 -0.0507,-63.84973 12.10221,-68.92752 22.71588,-9.49131 60.28264,13.69085 77.01435,47.52494 6.38983,12.92123 6.84876,14.91966 6.72115,29.26609 -0.34589,38.87626 -12.04479,54.04694 -41.70281,54.07842 -7.0054,0.008 -9.4477,-0.65644 -9.4477,-2.56806 z"
         style="fill:#ffffff;fill-opacity:1;stroke:#000000;stroke-width:0.96077657;stroke-opacity:1" />
      <path
         inkscape:connector-curvature="0"
         id="path4081"
         d="m 413.30787,237.82526 c 0.55129,-3.39716 4.36873,-11.69764 8.48325,-18.4455 7.25024,-11.89052 7.44901,-12.6295 6.44689,-23.96596 -0.56872,-6.43342 -1.53782,-14.329 -2.15356,-17.54572 -0.98364,-5.13845 -0.64775,-5.84858 2.76662,-5.84858 5.52704,0 12.67734,15.82043 12.70079,28.10133 0.0307,16.03745 -16.75227,43.88112 -26.44959,43.88112 -2.18072,0 -2.57596,-1.36045 -1.7944,-6.17669 z"
         style="fill:#ffffff;fill-opacity:1;stroke:#000000;stroke-width:0.96077657;stroke-opacity:1" />
      <path
         inkscape:connector-curvature="0"
         id="path4077"
         d="m 164.43708,209.5692 c 0,-5.39845 4.63298,-16.38915 9.29032,-22.03935 8.15935,-9.89866 21.32542,-15.31961 21.28078,-8.76201 -0.0388,5.68475 -11.86629,24.65815 -17.94885,28.79302 -6.38805,4.34252 -12.62225,5.33443 -12.62225,2.00834 z"
         style="fill:#ffffff;fill-opacity:1;stroke:#000000;stroke-width:0.96077657;stroke-opacity:1" />
      <path
         inkscape:connector-curvature="0"
         id="path4073"
         d="m 249.01643,539.81291 c 6.43345,-2.62695 24.14468,-9.07868 39.35836,-14.33719 40.29247,-13.92688 95.94124,-41.91858 110.90368,-55.78533 5.32666,-4.93657 5.77529,-11.36691 1.18818,-17.0317 l -3.31199,-4.09014 -5.51976,7.93982 c -17.54922,25.24329 -38.12188,36.45307 -100.54417,54.7852 -33.20239,9.75083 -46.77329,16.34674 -56.59843,27.50869 -8.31857,9.45038 -8.94927,11.93909 -2.1218,8.37225 2.72184,-1.42195 10.2125,-4.73469 16.64593,-7.3616 z"
         style="fill:#ffffff;fill-opacity:1;stroke:#000000;stroke-width:0.96077657;stroke-opacity:1" />
      <path
         inkscape:connector-curvature="0"
         id="path4071"
         d="m 586.43409,929.87635 c -9.14575,-4.16526 -18.02322,-14.01371 -26.83414,-29.76914 -6.55368,-11.71909 -7.01968,-13.59434 -8.43319,-33.93687 -1.75066,-25.19458 -0.0645,-35.75478 7.342,-45.97901 2.89197,-3.99223 8.76163,-8.81951 13.53178,-11.1287 17.41765,-8.43178 53.51496,-1.4417 84.77266,16.41579 25.34228,14.478 36.69474,27.76795 36.69474,42.95721 0,10.5009 -3.90534,18.44553 -14.65396,29.81064 -25.37235,26.82749 -69.67388,41.98942 -92.41989,31.63008 z"
         style="fill:#000000;fill-opacity:1;stroke:#000000;stroke-width:0.96077657;stroke-opacity:1" />
      <path
         inkscape:connector-curvature="0"
         id="path4067"
         d="m 44.96306,884.96398 c -2.358263,-3.81576 -4.668776,-26.6698 -4.671468,-46.20719 -0.0079,-56.40549 17.145503,-111.87577 56.828194,-183.77067 6.490204,-11.75861 13.447624,-25.19928 15.460994,-29.8682 2.01335,-4.66889 5.19932,-8.97728 7.08001,-9.57418 3.17123,-1.00652 36.71586,3.82116 39.80143,5.72811 4.04577,2.50044 0.45444,15.00228 -11.91452,41.47568 -20.74349,44.39743 -30.19716,74.19574 -32.71761,103.12705 -1.6625,19.08307 1.8574,44.68884 8.38369,60.98742 2.98479,7.45418 5.16644,15.9285 4.86975,18.91597 -0.48832,4.91716 -1.85407,5.96856 -14.93393,11.49625 -7.91807,3.34626 -25.491539,11.27866 -39.052195,17.62749 -25.269927,11.83099 -27.553707,12.61974 -29.134345,10.06227 z"
         style="fill:#000000;fill-opacity:1;stroke:none" />
    </g>
    <text
       xml:space="preserve"
       style="font-size:40px;font-style:normal;font-variant:normal;font-weight:normal;font-stretch:normal;line-height:125%;letter-spacing:0px;word-spacing:0px;fill:#000000;fill-opacity:1;stroke:none;font-family:'Terminus (ttf)';-inkscape-font-specification:'Terminus (ttf)'"
       x="51.42857"
       y="304.09448"
       id="text3153"
       sodipodi:linespacing="125%"
       transform="translate(0,308.2677)"><tspan
         sodipodi:role="line"
         id="tspan3155"
         x="51.42857"
         y="304.09448" /></text>
    <text
       xml:space="preserve"
       style="font-size:40px;font-style:italic;font-variant:normal;font-weight:bold;font-stretch:normal;line-height:125%;letter-spacing:0px;word-spacing:0px;fill:#000000;fill-opacity:1;stroke:none;font-family:Sans;-inkscape-font-specification:Terminus Bold Italic"
       x="152.85715"
       y="326.23734"
       id="text3161"
       sodipodi:linespacing="125%"
       transform="translate(0,308.2677)"><tspan
         sodipodi:role="line"
         id="tspan3163"
         x="152.85715"
         y="326.23734"> </tspan></text>
    <g
       style="font-size:171.59385681px;font-style:normal;font-variant:normal;font-weight:normal;font-stretch:normal;line-height:125%;letter-spacing:0px;word-spacing:0px;fill:#000000;fill-opacity:1;stroke:none;font-family:Anonymous Pro for Powerline;-inkscape-font-specification:Anonymous Pro for Powerline"
       id="text3173">
      <path
         d="m 790.22391,487.02954 c -0.8938,8.21105 -4.13352,14.74636 -9.71918,19.60594 -5.52995,4.80373 -12.45626,7.2056 -20.77895,7.2056 -4.58035,0 -8.76964,-0.75407 -12.56791,-2.26222 -3.79833,-1.50815 -7.03805,-3.6028 -9.71918,-6.28396 -2.68118,-2.68114 -4.77583,-5.89294 -6.28395,-9.63539 -1.45231,-3.79829 -2.17846,-7.93173 -2.17844,-12.40034 l 0,-39.63081 -17.67886,0 0,-9.80297 17.67886,0 0,-31.2522 11.47869,0 0,31.2522 33.26307,0 0,9.80297 -33.26307,0 0,39.63081 c -3e-5,2.84875 0.44683,5.5299 1.34058,8.04346 0.94954,2.5136 2.23426,4.71996 3.85415,6.6191 1.67569,1.89916 3.68655,3.40731 6.0326,4.52445 2.34597,1.06129 5.02712,1.59194 8.04346,1.59193 5.6974,10e-6 10.44527,-1.7595 14.24363,-5.27852 3.8541,-3.57486 6.06046,-8.18308 6.6191,-13.8247 l 9.6354,2.09465"
         id="path3292"
         inkscape:connector-curvature="0" />
      <path
         d="m 695.54566,443.62836 -33.26307,0 0,58.48267 17.59507,0 0,9.80297 -46.83641,0 0,-9.80297 17.67886,0 0,-58.48267 -17.67886,0 0,-9.80297 17.67886,0 c -3e-5,-10.72453 2.76491,-18.90762 8.29482,-24.54932 5.58569,-5.69734 13.99222,-8.54606 25.21961,-8.54617 2.62522,1.1e-4 4.83159,0.0839 6.6191,0.25135 1.84321,0.16769 3.40722,0.36319 4.69202,0.58651 l 0,9.80297 c -1.61994,-0.22333 -3.32359,-0.41883 -5.11095,-0.58651 -1.73165,-0.16747 -3.79837,-0.25125 -6.20017,-0.25135 -7.31738,10e-5 -12.81932,1.87132 -16.50586,5.61366 -3.63077,3.68668 -5.44614,9.57963 -5.44609,17.67886 l 33.26307,0 0,9.80297"
         id="path3290"
         inkscape:connector-curvature="0" />
      <path
         d="m 620.01573,473.12105 c -8e-5,6.08849 -0.97758,11.61837 -2.93251,16.58964 -1.89923,4.97133 -4.66417,9.24441 -8.29482,12.81927 -3.57494,3.51902 -7.87596,6.28396 -12.90306,8.29482 -5.02721,2.01087 -10.64087,3.0163 -16.841,3.0163 -6.08848,0 -11.64629,-1.00543 -16.67342,-3.0163 -5.02718,-2.01086 -9.35613,-4.7758 -12.98684,-8.29482 -3.57488,-3.57486 -6.33982,-7.84794 -8.29482,-12.81927 -1.89915,-4.97127 -2.84873,-10.50115 -2.84873,-16.58964 0,-5.92083 0.94958,-11.42278 2.84873,-16.50585 1.955,-5.13882 4.71994,-9.49569 8.29482,-13.07063 3.63071,-3.63065 7.95966,-6.45145 12.98684,-8.46239 5.02713,-2.06664 10.58494,-3.1 16.67342,-3.10008 6.20013,8e-5 11.81379,1.03344 16.841,3.10008 5.0271,2.01094 9.32812,4.83174 12.90306,8.46239 3.63065,3.57494 6.39559,7.93181 8.29482,13.07063 1.95493,5.08307 2.93243,10.58502 2.93251,16.50585"
         id="path3288"
         inkscape:connector-curvature="0" />
      <path
         style="fill:#ffffff"
         d="m 608.53704,473.12105 c -7e-5,-4.46854 -0.67036,-8.57406 -2.01087,-12.31655 -1.28478,-3.79824 -3.21186,-7.12175 -5.78124,-9.97054 -2.56949,-2.84866 -5.6975,-5.08295 -9.38404,-6.70288 -3.63077,-1.6198 -7.73629,-2.42973 -12.31655,-2.4298 -4.58034,7e-5 -8.71378,0.81 -12.40033,2.4298 -3.63076,1.61993 -6.70291,3.85422 -9.21647,6.70288 -2.5136,2.84879 -4.44068,6.1723 -5.78124,9.97054 -1.28473,3.74249 -1.92709,7.84801 -1.92708,12.31655 -10e-6,4.46863 0.64235,8.60207 1.92708,12.40034 1.34056,3.74247 3.26764,6.98219 5.78124,9.71918 2.51356,2.73703 5.58571,4.88754 9.21647,6.45153 3.68655,1.56402 7.81999,2.34602 12.40033,2.34601 4.58026,10e-6 8.68578,-0.78199 12.31655,-2.34601 3.68654,-1.56399 6.81455,-3.7145 9.38404,-6.45153 2.56938,-2.73699 4.49646,-5.97671 5.78124,-9.71918 1.34051,-3.79827 2.0108,-7.93171 2.01087,-12.40034"
         id="path3286"
         inkscape:connector-curvature="0" />
      <path
         d="m 521.39953,483.42674 c -8e-5,4.58033 -0.94965,8.7417 -2.84873,12.48412 -1.89922,3.6866 -4.44073,6.87047 -7.62453,9.55161 -3.18393,2.68116 -6.84258,4.74788 -10.97597,6.20017 -4.1335,1.45229 -8.43451,2.17844 -12.90306,2.17844 -6.14434,0 -11.78593,-1.14508 -16.92478,-3.43523 -5.1389,-2.29015 -9.21648,-5.66951 -12.23277,-10.13811 l 0,11.64626 -9.71918,0 0,-33.26307 9.71918,0 c -10e-6,3.74248 0.86578,7.1777 2.59737,10.30569 1.73156,3.07218 3.93793,5.7254 6.6191,7.95968 2.68113,2.2343 5.75328,3.99381 9.21647,5.27852 3.51898,1.22887 7.09385,1.8433 10.72461,1.84329 3.23969,10e-6 6.22805,-0.44685 8.96511,-1.34058 2.73696,-0.94956 5.13883,-2.26221 7.2056,-3.93794 2.06667,-1.73156 3.68653,-3.82621 4.8596,-6.28396 1.22879,-2.4577 1.84323,-5.25056 1.84329,-8.3786 -6e-5,-3.51898 -0.78207,-6.53528 -2.34601,-9.0489 -1.50821,-2.51354 -3.57493,-4.66405 -6.20017,-6.45152 -2.56949,-1.78739 -5.47407,-3.29554 -8.71375,-4.52445 -3.23977,-1.28467 -6.53535,-2.54146 -9.88676,-3.77037 -3.9659,-1.39638 -7.93177,-2.84867 -11.89762,-4.35688 -3.96589,-1.56395 -7.51283,-3.51895 -10.64083,-5.86502 -3.12802,-2.34595 -5.66953,-5.19467 -7.62453,-8.54618 -1.95501,-3.40723 -2.93251,-7.62446 -2.93251,-12.6517 0,-4.4685 0.94957,-8.43437 2.84873,-11.89762 1.89914,-3.51891 4.38479,-6.47935 7.45696,-8.88132 3.07213,-2.40176 6.647,-4.21712 10.72461,-5.44609 4.07756,-1.28461 8.26686,-1.92697 12.56791,-1.92708 5.30641,1.1e-4 10.19392,1.08932 14.66256,3.26765 4.52439,2.17855 8.0434,5.50206 10.55705,9.97054 l 0,-11.3949 10.13811,0 0,31.2522 -10.13811,0 c -7e-5,-3.2955 -0.69828,-6.36766 -2.09466,-9.21647 -1.34063,-2.90449 -3.18392,-5.36221 -5.52988,-7.37317 -2.34606,-2.06663 -5.02721,-3.68649 -8.04346,-4.85959 -3.01634,-1.22876 -6.20021,-1.84319 -9.55161,-1.84329 -2.96047,10e-5 -5.78127,0.33524 -8.46239,1.00543 -2.68118,0.67039 -5.02719,1.7596 -7.03803,3.26765 -2.01089,1.45239 -3.63075,3.35154 -4.85959,5.69746 -1.17302,2.3461 -1.75952,5.13896 -1.75951,8.3786 -1e-5,2.84881 0.6982,5.2786 2.09465,7.28939 1.45228,2.01094 3.37935,3.79837 5.78124,5.36231 2.40184,1.50822 5.16678,2.90465 8.29482,4.1893 3.18384,1.22893 6.42356,2.48572 9.71918,3.77037 4.1334,1.45236 8.23892,3.07222 12.31656,4.8596 4.07753,1.78749 7.73618,3.93799 10.97597,6.45152 3.23966,2.51363 5.89288,5.61371 7.95968,9.30026 2.06664,3.63076 3.1,8.07142 3.10008,13.32198"
         id="path3284"
         inkscape:connector-curvature="0" />
      <path
         d="m 336.48368,472.95348 c -7e-5,6.08849 -0.94965,11.61836 -2.84872,16.58964 -1.89923,4.97133 -4.58038,9.27234 -8.04346,12.90306 -3.40737,3.57487 -7.54081,6.36774 -12.40034,8.3786 -4.85964,2.01087 -10.30573,3.0163 -16.33828,3.0163 -4.13348,0 -8.15521,-0.75407 -12.0652,-2.26222 -3.85418,-1.50815 -7.45698,-3.74244 -10.8084,-6.70289 l 0,38.29023 -11.47869,0 0,-109.34081 11.47869,0 0,7.2056 c 7.09386,-6.03252 14.71839,-9.04881 22.8736,-9.04889 6.03255,8e-5 11.47864,1.00551 16.33828,3.0163 4.85953,1.95508 8.99297,4.77587 12.40034,8.46239 3.46308,3.63079 6.14423,7.98766 8.04346,13.07062 1.89907,5.02722 2.84865,10.50124 2.84872,16.42207"
         id="path3282"
         inkscape:connector-curvature="0" />
      <path
         style="fill:#ffffff"
         d="m 325.00499,472.95348 c -6e-5,-4.35683 -0.61449,-8.43441 -1.84329,-12.23276 -1.17307,-3.85411 -2.9605,-7.17762 -5.36231,-9.97054 -2.40192,-2.79281 -5.36236,-4.99917 -8.88132,-6.6191 -3.46321,-1.6198 -7.48493,-2.42973 -12.06519,-2.4298 -4.35691,7e-5 -8.4345,0.81 -12.23277,2.4298 -3.74247,1.61993 -7.28941,4.24522 -10.64083,7.87589 l 0,41.89303 c 3.35142,3.63074 6.89836,6.22811 10.64083,7.7921 3.79827,1.56402 7.87586,2.34602 12.23277,2.34601 4.58026,10e-6 8.60198,-0.80992 12.06519,-2.42979 3.51896,-1.61986 6.4794,-3.82622 8.88132,-6.6191 2.40181,-2.79285 4.18924,-6.06051 5.36231,-9.80297 1.2288,-3.79827 1.84323,-7.87586 1.84329,-12.23277"
         id="path3280"
         inkscape:connector-curvature="0" />
      <path
         d="m 164.38711,490.79991 c 0,-4.91542 1.22886,-9.02093 3.68658,-12.31655 2.45772,-3.3514 5.66952,-5.9767 9.6354,-7.87589 4.02172,-1.95496 8.60202,-3.3514 13.74092,-4.1893 5.1947,-0.89367 10.47322,-1.34053 15.83556,-1.34058 2.06668,5e-5 3.90997,0.028 5.52988,0.0838 1.67567,0.0559 3.23968,0.13969 4.69202,0.25136 1.5081,0.11176 3.01624,0.2514 4.52445,0.41893 1.50809,0.16761 3.15588,0.36312 4.94338,0.5865 l 0,-5.61367 c -7e-5,-3.79824 -0.83793,-6.92625 -2.51359,-9.38404 -1.61992,-2.45766 -3.63078,-4.38474 -6.03259,-5.78123 -2.40192,-1.45223 -4.9155,-2.45766 -7.54075,-3.0163 -2.62534,-0.61436 -4.85963,-0.92158 -6.70288,-0.92165 -5.8092,7e-5 -11.17151,0.78207 -16.08693,2.34601 -4.91546,1.56407 -9.49576,3.65872 -13.74091,6.28396 l -5.19474,-8.62997 c 4.69201,-2.84865 9.9426,-5.16673 15.75178,-6.95424 5.865,-1.84322 12.28859,-2.76486 19.2708,-2.76494 4.24511,8e-5 8.40648,0.55865 12.48412,1.67572 4.13339,1.06137 7.81997,2.73709 11.05976,5.02716 3.29552,2.23437 5.92081,5.19481 7.87589,8.88133 1.95494,3.68664 2.93244,8.09937 2.93251,13.23819 l 0,51.1095 -11.56247,0 0,-13.07062 c -2.01093,2.51359 -4.30108,4.71995 -6.87046,6.61909 -2.51364,1.89916 -5.16686,3.46316 -7.95968,4.69202 -2.79291,1.17301 -5.58578,2.06673 -8.3786,2.68116 -2.79291,0.67029 -5.44613,1.00543 -7.95968,1.00543 -10.33363,0 -18.15366,-1.98294 -23.4601,-5.94881 -5.30645,-3.96587 -7.95967,-9.66331 -7.95967,-17.09236"
         id="path3278"
         inkscape:connector-curvature="0" />
      <path
         style="fill:#ffffff"
         d="m 195.80688,504.03812 c 4.8037,1e-5 9.10471,-0.69821 12.90306,-2.09465 3.85411,-1.45228 7.12176,-3.23971 9.80296,-5.36231 2.6811,-2.12256 4.74782,-4.38478 6.20017,-6.78667 1.50809,-2.40184 2.26216,-4.58028 2.26223,-6.53531 l 0,-7.37318 c -3.74251,-0.55853 -7.3453,-0.86575 -10.80841,-0.92164 -3.40734,-0.0558 -6.36778,-0.0838 -8.88132,-0.0838 -4.13348,4e-5 -8.12728,0.27933 -11.98141,0.83786 -3.79832,0.55861 -7.12183,1.48026 -9.97054,2.76494 -2.84874,1.2289 -5.13889,2.84876 -6.87045,4.85959 -1.73159,2.0109 -2.59738,4.49655 -2.59737,7.45696 -1e-5,3.29561 1.59192,6.33983 4.7758,9.13268 3.23971,2.73703 8.2948,4.10553 15.16528,4.10552"
         id="path3276"
         inkscape:connector-curvature="0" />
      <path
         d="m 149.64076,487.02954 c -0.8938,8.21105 -4.13352,14.74636 -9.71919,19.60594 -5.52994,4.80373 -12.45625,7.2056 -20.77894,7.2056 -4.58035,0 -8.76965,-0.75407 -12.56791,-2.26222 -3.79833,-1.50815 -7.038056,-3.6028 -9.719182,-6.28396 -2.681177,-2.68114 -4.775827,-5.89294 -6.283954,-9.63539 -1.45231,-3.79829 -2.178456,-7.93173 -2.178438,-12.40034 l 0,-39.63081 -17.678859,0 0,-9.80297 17.678859,0 0,-31.2522 11.478691,0 0,31.2522 33.263063,0 0,9.80297 -33.263063,0 0,39.63081 c -2.9e-5,2.84875 0.446833,5.5299 1.340573,8.04346 0.94955,2.5136 2.23427,4.71996 3.85416,6.6191 1.67569,1.89916 3.68655,3.40731 6.0326,4.52445 2.34597,1.06129 5.02712,1.59194 8.04346,1.59193 5.6974,10e-6 10.44527,-1.7595 14.24363,-5.27852 3.85409,-3.57486 6.06046,-8.18308 6.6191,-13.8247 l 9.6354,2.09465"
         id="path3271"
         inkscape:connector-curvature="0" />
    </g>
  </g>
</svg>
