<?xml version="1.0" encoding="UTF-8" standalone="no"?>
<!-- Created with Inkscape (http://www.inkscape.org/) -->

<svg
   xmlns:dc="http://purl.org/dc/elements/1.1/"
   xmlns:cc="http://creativecommons.org/ns#"
   xmlns:rdf="http://www.w3.org/1999/02/22-rdf-syntax-ns#"
   xmlns:svg="http://www.w3.org/2000/svg"
   xmlns="http://www.w3.org/2000/svg"
   xmlns:xlink="http://www.w3.org/1999/xlink"
   xmlns:sodipodi="http://sodipodi.sourceforge.net/DTD/sodipodi-0.dtd"
   xmlns:inkscape="http://www.inkscape.org/namespaces/inkscape"
   width="603.75195"
   height="532.26959"
   id="svg2"
   version="1.1"
   inkscape:version="0.48.4 r9939"
   sodipodi:docname="luinjo.svg">
  <defs
     id="defs4">
    <linearGradient
       inkscape:collect="always"
       id="linearGradient3805">
      <stop
         style="stop-color:#ffffff;stop-opacity:1"
         offset="0"
         id="stop3807" />
      <stop
         style="stop-color:#b3b3b3;stop-opacity:1"
         offset="1"
         id="stop3809" />
    </linearGradient>
    <linearGradient
       inkscape:collect="always"
       id="linearGradient4072">
      <stop
         style="stop-color:#b3b3b3;stop-opacity:1"
         offset="0"
         id="stop4074" />
      <stop
         style="stop-color:#4d4d4d;stop-opacity:1"
         offset="1"
         id="stop4076" />
    </linearGradient>
    <linearGradient
       id="linearGradient4029"
       inkscape:collect="always">
      <stop
         id="stop4031"
         offset="0"
         style="stop-color:#f2f2f2;stop-opacity:1" />
      <stop
         id="stop4033"
         offset="1"
         style="stop-color:#4d4d4d;stop-opacity:0.5" />
    </linearGradient>
    <linearGradient
       inkscape:collect="always"
       id="linearGradient3987">
      <stop
         style="stop-color:#f2f2f2;stop-opacity:1"
         offset="0"
         id="stop3989" />
      <stop
         style="stop-color:#4d4d4d;stop-opacity:0.59583333"
         offset="1"
         id="stop3991" />
    </linearGradient>
    <linearGradient
       id="linearGradient3953">
      <stop
         style="stop-color:#ffffff;stop-opacity:1;"
         offset="0"
         id="stop3955" />
      <stop
         style="stop-color:#999999;stop-opacity:1"
         offset="1"
         id="stop3957" />
    </linearGradient>
    <radialGradient
       inkscape:collect="always"
       xlink:href="#linearGradient3987"
       id="radialGradient3993"
       cx="358.73444"
       cy="870.77716"
       fx="358.73444"
       fy="870.77716"
       r="371.14279"
       gradientUnits="userSpaceOnUse"
       gradientTransform="matrix(1.2059409,-1.2059409,1.2637947,1.2637947,-1174.3617,202.90611)" />
    <radialGradient
       inkscape:collect="always"
       xlink:href="#linearGradient3987-5"
       id="radialGradient3993-4"
       cx="358.73444"
       cy="870.77716"
       fx="358.73444"
       fy="870.77716"
       r="371.14279"
       gradientUnits="userSpaceOnUse"
       gradientTransform="matrix(1.2059409,-1.2059409,1.2637947,1.2637947,-1174.3617,202.90611)" />
    <linearGradient
       inkscape:collect="always"
       id="linearGradient3987-5">
      <stop
         style="stop-color:#f2f2f2;stop-opacity:1"
         offset="0"
         id="stop3989-7" />
      <stop
         style="stop-color:#4d4d4d;stop-opacity:0.59583333"
         offset="1"
         id="stop3991-9" />
    </linearGradient>
    <radialGradient
       r="371.14279"
       fy="736.26166"
       fx="795.85602"
       cy="736.26166"
       cx="795.85602"
       gradientTransform="matrix(-0.9622789,-1.2904957e-8,2.3976178e-8,-1.7872756,1481.7127,1489.5368)"
       gradientUnits="userSpaceOnUse"
       id="radialGradient4010"
       xlink:href="#linearGradient4029"
       inkscape:collect="always" />
    <radialGradient
       inkscape:collect="always"
       xlink:href="#linearGradient4072"
       id="radialGradient4078"
       cx="11.421785"
       cy="906.16791"
       fx="11.421785"
       fy="906.16791"
       r="425.42856"
       gradientUnits="userSpaceOnUse"
       gradientTransform="matrix(1.2726662,-0.09738083,0.07629416,0.99708535,-52.079871,4.0770089)" />
    <radialGradient
       inkscape:collect="always"
       xlink:href="#linearGradient3805"
       id="radialGradient3811"
       cx="835.34796"
       cy="392.84183"
       fx="835.34796"
       fy="392.84183"
       r="425.42856"
       gradientUnits="userSpaceOnUse"
       gradientTransform="matrix(-0.80131538,-0.00979075,0.00748871,-0.61293393,1433.7412,385.45622)" />
  </defs>
  <sodipodi:namedview
     id="base"
     pagecolor="#ffffff"
     bordercolor="#666666"
     borderopacity="1.0"
     inkscape:pageopacity="0.0"
     inkscape:pageshadow="2"
     inkscape:zoom="0.2048544"
     inkscape:cx="594.48547"
     inkscape:cy="-362.84035"
     inkscape:document-units="px"
     inkscape:current-layer="layer1"
     showgrid="false"
     fit-margin-top="0"
     fit-margin-left="0"
     fit-margin-right="0"
     fit-margin-bottom="0"
     inkscape:window-width="1918"
     inkscape:window-height="1176"
     inkscape:window-x="1920"
     inkscape:window-y="0"
     inkscape:window-maximized="0" />
  <metadata
     id="metadata7">
    <rdf:RDF>
      <cc:Work
         rdf:about="">
        <dc:format>image/svg+xml</dc:format>
        <dc:type
           rdf:resource="http://purl.org/dc/dcmitype/StillImage" />
        <dc:title />
      </cc:Work>
    </rdf:RDF>
  </metadata>
  <g
     inkscape:label="background"
     inkscape:groupmode="layer"
     id="layer1"
     transform="translate(-87.305858,-241.36473)"
     style="display:inline">
    <rect
       style="color:#000000;fill:#808080;fill-opacity:1;fill-rule:nonzero;stroke:#ff0000;stroke-width:0.24060999;stroke-linecap:round;stroke-linejoin:round;stroke-miterlimit:4;stroke-opacity:1;stroke-dasharray:none;marker:none;visibility:visible;display:inline;overflow:visible;enable-background:accumulate"
       id="rect3833"
       width="2987.5508"
       height="986.12555"
       x="-195.50641"
       y="17.714388" />
  </g>
  <g
     inkscape:groupmode="layer"
     id="layer2"
     inkscape:label="L"
     style="display:inline">
    <g
       id="g4035">
      <rect
         y="99.34861"
         x="-32.694157"
         height="822.85712"
         width="822.85712"
         id="rect3160"
         style="display:inline;color:#000000;fill:#808080;fill-opacity:1;fill-rule:nonzero;stroke:#000000;stroke-width:28;stroke-linecap:round;stroke-linejoin:round;stroke-miterlimit:4;stroke-opacity:1;stroke-dasharray:none;marker:none;visibility:visible;overflow:visible;enable-background:accumulate"
         transform="translate(-87.305858,-241.36473)" />
      <rect
         y="99.34861"
         x="-32.694153"
         height="822.85712"
         width="822.85712"
         id="rect3160-0"
         style="display:inline;color:#000000;fill:url(#radialGradient4078);fill-opacity:1;fill-rule:nonzero;stroke:#000000;stroke-width:28;stroke-linecap:round;stroke-linejoin:round;stroke-miterlimit:4;stroke-opacity:1;stroke-dasharray:none;marker:none;visibility:visible;overflow:visible;enable-background:accumulate;opacity:0.80000000000000004"
         transform="translate(-87.305858,-241.36473)" />
      <rect
         y="99.34861"
         x="-32.694153"
         height="822.85712"
         width="822.85712"
         id="rect3160-5"
         style="display:inline;color:#000000;fill:url(#radialGradient3811);fill-opacity:1;fill-rule:nonzero;stroke:#000000;stroke-width:28;stroke-linecap:round;stroke-linejoin:round;stroke-miterlimit:4;stroke-opacity:1;stroke-dasharray:none;marker:none;visibility:visible;overflow:visible;enable-background:accumulate;opacity:0.10000000000000001"
         transform="translate(-87.305858,-241.36473)" />
      <rect
         y="151.84789"
         x="19.805128"
         height="717.85858"
         width="717.85858"
         id="rect3160-2"
         style="display:inline;opacity:1;color:#000000;fill:#808080;fill-opacity:1;fill-rule:nonzero;stroke:#000000;stroke-width:24.42699999999999960;stroke-linecap:round;stroke-linejoin:round;stroke-miterlimit:4;stroke-opacity:1;stroke-dasharray:none;marker:none;visibility:visible;overflow:visible;enable-background:accumulate"
         transform="translate(-87.305858,-241.36473)" />
      <rect
         y="151.84789"
         x="19.805128"
         height="717.85858"
         width="717.85858"
         id="rect3160-2-1"
         style="display:inline;color:#000000;fill:url(#radialGradient3993);fill-opacity:1;fill-rule:nonzero;stroke:#000000;stroke-width:24.42700005000000019;stroke-linecap:round;stroke-linejoin:round;stroke-miterlimit:4;stroke-opacity:1;stroke-dasharray:none;marker:none;visibility:visible;overflow:visible;enable-background:accumulate"
         transform="translate(-87.305858,-241.36473)" />
      <rect
         y="151.84789"
         x="19.805128"
         height="717.85858"
         width="717.85858"
         id="rect3160-2-1-5"
         style="display:inline;color:#000000;fill:url(#radialGradient4010);fill-opacity:1;fill-rule:nonzero;stroke:#000000;stroke-width:24.42700005000000019;stroke-linecap:round;stroke-linejoin:round;stroke-miterlimit:4;stroke-opacity:1;stroke-dasharray:none;marker:none;visibility:visible;overflow:visible;enable-background:accumulate"
         transform="translate(-87.305858,-241.36473)" />
      <path
         d="m 1087.7136,766.43529 0,-39.04946 c -36.4041,33.01743 -75.771,49.52613 -118.10078,49.52614 -26.03311,-10e-6 -45.82238,-7.09028 -59.36786,-21.27084 -17.56706,-18.62519 -26.35053,-40.3193 -26.35045,-65.08242 l 0,-172.07158 -35.8747,0 c -6.34954,2.5e-4 -10.90002,-1.26965 -13.65143,-3.8097 -2.75149,-2.53955 -4.12721,-5.82012 -4.12718,-9.84173 -3e-5,-3.80944 1.37569,-6.98419 4.12718,-9.52426 2.75141,-2.53953 7.30189,-3.80943 13.65143,-3.8097 l 62.54262,0 0,199.05697 c -1.1e-4,17.35537 5.50279,31.64174 16.50871,42.85915 11.00567,11.21748 24.76292,16.82621 41.27178,16.82619 43.38808,2e-5 83.17828,-19.89508 119.37068,-59.68534 l 0,-172.07158 -49.2087,0 c -6.3497,2.5e-4 -10.9002,-1.26965 -13.6514,-3.8097 -2.7517,-2.53955 -4.1274,-5.82012 -4.1272,-9.84173 -2e-4,-3.80944 1.3755,-6.98419 4.1272,-9.52426 2.7512,-2.53953 7.3017,-3.80943 13.6514,-3.8097 l 75.8766,0 0,248.26563 22.5408,0 c 6.3491,2e-5 10.8996,1.26992 13.6514,3.8097 2.7511,2.32817 4.1268,5.50292 4.1272,9.52426 -4e-4,3.80971 -1.3761,6.98446 -4.1272,9.52425 -2.7518,2.53981 -7.3023,3.80971 -13.6514,3.80971 l -49.2087,0"
         style="display:inline;font-size:650.18927001999998083px;font-style:normal;font-variant:normal;font-weight:normal;font-stretch:normal;line-height:125%;letter-spacing:0px;word-spacing:0px;fill:#000000;fill-opacity:1;stroke:none;font-family:Courier New;-inkscape-font-specification:Courier New"
         id="path3818"
         inkscape:connector-curvature="0"
         transform="translate(-87.305858,-241.36473)" />
      <path
         d="m 1399.4743,365.14659 0,68.89213 -39.3669,0 0,-68.89213 39.3669,0 m 0.9524,136.83183 0,248.26563 104.7668,0 c 6.5609,2e-5 11.2172,1.26992 13.969,3.8097 2.7511,2.32817 4.1268,5.50292 4.1271,9.52426 -3e-4,3.80971 -1.376,6.98446 -4.1271,9.52425 -2.7518,2.53981 -7.4081,3.80971 -13.969,3.80971 l -236.2015,0 c -6.3496,0 -10.9001,-1.2699 -13.6515,-3.80971 -2.7515,-2.53979 -4.1272,-5.71454 -4.1271,-9.52425 -1e-4,-4.02134 1.3756,-7.19609 4.1271,-9.52426 2.7514,-2.53978 7.3019,-3.80968 13.6515,-3.8097 l 104.7668,0 0,-221.28024 -77.7814,0 c -6.3496,2.5e-4 -11.0059,-1.26965 -13.9689,-3.8097 -2.7516,-2.53955 -4.1273,-5.7143 -4.1272,-9.52426 -10e-5,-4.02109 1.3756,-7.30166 4.1272,-9.84173 2.7513,-2.53953 7.4076,-3.80943 13.9689,-3.8097 l 104.4493,0"
         style="display:inline;font-size:650.18927001999998083px;font-style:normal;font-variant:normal;font-weight:normal;font-stretch:normal;line-height:125%;letter-spacing:0px;word-spacing:0px;fill:#000000;fill-opacity:1;stroke:none;font-family:Courier New;-inkscape-font-specification:Courier New"
         id="path3820"
         inkscape:connector-curvature="0"
         transform="translate(-87.305858,-241.36473)" />
      <path
         d="m 1689.9641,501.97842 0,40.31935 c 18.6251,-18.83661 35.4513,-31.85308 50.4786,-39.04945 15.027,-7.19583 31.959,-10.79388 50.796,-10.79416 20.3182,2.8e-4 38.8376,4.33911 55.5582,13.01648 11.8521,6.34977 22.5404,16.93227 32.065,31.74753 9.7356,14.60408 14.6035,29.63123 14.6039,45.08148 l 0,167.9444 22.5407,0 c 6.3492,2e-5 10.8996,1.26992 13.6514,3.8097 2.7511,2.32817 4.1269,5.50292 4.1272,9.52426 -3e-4,3.80971 -1.3761,6.98446 -4.1272,9.52425 -2.7518,2.53981 -7.3022,3.80971 -13.6514,3.80971 l -71.4319,0 c -6.5614,0 -11.2177,-1.2699 -13.9689,-3.80971 -2.7517,-2.53979 -4.1275,-5.71454 -4.1272,-9.52425 -3e-4,-4.02134 1.3755,-7.19609 4.1272,-9.52426 2.7512,-2.53978 7.4075,-3.80968 13.9689,-3.8097 l 22.2232,0 0,-163.49975 c -2e-4,-18.83665 -6.8789,-34.7104 -20.6359,-47.62128 -13.7575,-13.12206 -32.171,-19.68321 -55.2406,-19.68347 -17.5672,2.6e-4 -32.806,3.59831 -45.7165,10.79416 -12.9108,6.9847 -31.3243,24.55164 -55.2407,52.70089 l 0,167.30945 30.1602,0 c 6.3493,2e-5 10.8998,1.26992 13.6514,3.8097 2.7513,2.32817 4.127,5.50292 4.1272,9.52426 -2e-4,3.80971 -1.3759,6.98446 -4.1272,9.52425 -2.7516,2.53981 -7.3021,3.80971 -13.6514,3.80971 l -86.9882,0 c -6.3496,0 -10.9001,-1.2699 -13.6515,-3.80971 -2.7515,-2.53979 -4.1272,-5.71454 -4.1271,-9.52425 -10e-5,-4.02134 1.3756,-7.19609 4.1271,-9.52426 2.7514,-2.53978 7.3019,-3.80968 13.6515,-3.8097 l 30.1601,0 0,-221.28024 -22.5407,0 c -6.3496,2.5e-4 -10.9001,-1.26965 -13.6515,-3.8097 -2.7515,-2.53955 -4.1272,-5.82012 -4.1271,-9.84173 -10e-5,-3.80944 1.3756,-6.98419 4.1271,-9.52426 2.7514,-2.53953 7.3019,-3.80943 13.6515,-3.8097 l 49.2086,0"
         style="display:inline;font-size:650.18927001999998083px;font-style:normal;font-variant:normal;font-weight:normal;font-stretch:normal;line-height:125%;letter-spacing:0px;word-spacing:0px;fill:#000000;fill-opacity:1;stroke:none;font-family:Courier New;-inkscape-font-specification:Courier New"
         id="path3822"
         inkscape:connector-curvature="0"
         transform="translate(-87.305858,-241.36473)" />
      <path
         d="m 2204.274,365.14659 0,68.89213 -39.3669,0 0,-68.89213 39.3669,0 m 1.5874,163.81722 -158.4202,0 c -6.3496,2.5e-4 -10.9,-1.26965 -13.6514,-3.8097 -2.7515,-2.53955 -4.1273,-5.82012 -4.1272,-9.84173 -1e-4,-3.80944 1.2698,-6.98419 3.8097,-9.52426 2.7514,-2.53953 7.4077,-3.80943 13.9689,-3.8097 l 185.0881,0 0,293.66458 c -3e-4,22.64653 -4.6566,41.5892 -13.9689,56.82807 -9.3129,15.23872 -23.2818,27.62024 -41.9068,37.1446 -12.9108,6.56104 -28.2554,9.84161 -46.0339,9.84173 l -84.7659,0 c -6.3495,-1.2e-4 -10.9,-1.27002 -13.6514,-3.8097 -2.7515,-2.32827 -4.1272,-5.50302 -4.1272,-9.52425 0,-4.02146 1.3757,-7.30204 4.1272,-9.84174 2.7514,-2.5399 7.3019,-3.8098 13.6514,-3.8097 l 84.131,0.31748 c 22.6464,-10e-5 40.9541,-7.40785 54.9232,-22.22327 13.9687,-14.81557 20.9531,-33.12329 20.9534,-54.92322 l 0,-266.67919"
         style="display:inline;font-size:650.18927001999998083px;font-style:normal;font-variant:normal;font-weight:normal;font-stretch:normal;line-height:125%;letter-spacing:0px;word-spacing:0px;fill:#000000;fill-opacity:1;stroke:none;font-family:Courier New;-inkscape-font-specification:Courier New"
         id="path3824"
         inkscape:connector-curvature="0"
         transform="translate(-87.305858,-241.36473)" />
      <path
         d="m 2643.2322,629.60346 c -4e-4,40.63693 -14.6042,75.34752 -43.8116,104.13188 -28.9964,28.78442 -64.0244,43.17662 -105.0843,43.17663 -41.4836,-10e-6 -76.7233,-14.39221 -105.7193,-43.17663 -28.9961,-28.99601 -43.4941,-63.7066 -43.4941,-104.13188 0,-40.63665 14.498,-75.34724 43.4941,-104.13187 28.996,-28.9958 64.2357,-43.49383 105.7193,-43.49411 41.0599,2.8e-4 76.0879,14.39248 105.0843,43.17663 29.2074,28.78463 43.8112,63.60105 43.8116,104.44935 m -26.9854,0 c -4e-4,-33.44055 -11.9586,-61.90747 -35.8747,-85.40083 -23.7051,-23.49293 -52.4895,-35.2395 -86.3533,-35.23976 -33.8642,2.6e-4 -62.7544,11.85266 -86.6707,35.55723 -23.7049,23.49337 -35.5573,51.85446 -35.5573,85.08336 0,33.01753 11.8524,61.37862 35.5573,85.08336 23.9163,23.70485 52.8065,35.55725 86.6707,35.55723 33.8638,2e-5 62.6482,-11.74656 86.3533,-35.23975 23.9161,-23.70474 35.8743,-52.17166 35.8747,-85.40084"
         style="display:inline;font-size:650.18927001999998083px;font-style:normal;font-variant:normal;font-weight:normal;font-stretch:normal;line-height:125%;letter-spacing:0px;word-spacing:0px;fill:#000000;fill-opacity:1;stroke:none;font-family:Courier New;-inkscape-font-specification:Courier New"
         id="path3826"
         inkscape:connector-curvature="0"
         transform="translate(-87.305858,-241.36473)" />
      <g
         transform="matrix(2.185394,0,0,2.185394,2319.3893,-1726.3196)"
         id="g3155">
        <path
           inkscape:connector-curvature="0"
           id="path3015"
           style="font-size:426.33016968px;font-style:normal;font-variant:normal;font-weight:normal;font-stretch:normal;line-height:125%;letter-spacing:0px;word-spacing:0px;fill:#000000;fill-opacity:1;stroke:none;font-family:Monospace;-inkscape-font-specification:Monospace"
           d="m -923.68041,808.92117 0,208.58533 116.15832,0 0,-69.52842 c -2.2e-4,-4.16329 0.83246,-7.14705 2.49803,-8.95127 1.66513,-1.80404 3.81621,-2.7061 6.45324,-2.7062 2.4978,10e-5 4.57949,0.90216 6.24507,2.7062 1.66512,1.66544 2.49779,4.6492 2.49803,8.95127 l 0,87.01462 -193.18086,0 c -4.16342,0 -7.14717,-0.8326 -8.95127,-2.498 -1.80416,-1.6653 -2.70622,-3.747 -2.7062,-6.2451 -2e-5,-2.6368 0.90204,-4.7184 2.7062,-6.245 1.8041,-1.6654 4.78785,-2.498 8.95127,-2.4981 l 41.6338,0 0,-208.58533 -41.6338,0 c -4.16342,2.2e-4 -7.14717,-0.76306 -8.95127,-2.28986 -1.80416,-1.66513 -2.70622,-3.8162 -2.7062,-6.45324 -2e-5,-2.63657 0.90204,-4.71826 2.7062,-6.24508 1.8041,-1.6651 4.78785,-2.49778 8.95127,-2.49802 l 100.96198,0 c 4.16323,2.4e-4 7.14699,0.83292 8.95126,2.49802 1.80399,1.52682 2.70605,3.60851 2.7062,6.24508 -1.5e-4,2.63704 -0.90221,4.78811 -2.7062,6.45324 -1.80427,1.5268 -4.78803,2.29008 -8.95126,2.28986 l -41.63381,0" />
        <path
           inkscape:connector-curvature="0"
           id="path3015-6"
           style="font-size:426.33016968px;font-style:normal;font-variant:normal;font-weight:normal;font-stretch:normal;line-height:125%;letter-spacing:0px;word-spacing:0px;fill:#000000;fill-opacity:1;stroke:none;font-family:Monospace;-inkscape-font-specification:Monospace"
           d="m -970.35579,808.92117 0,208.58533 156.66355,0 0,-69.52842 c -3e-4,-4.16329 1.12274,-7.14705 3.36911,-8.95127 2.24577,-1.80404 5.14695,-2.7061 8.70353,-2.7062 3.3688,10e-5 6.17639,0.90216 8.42277,2.7062 2.24576,1.66544 3.36879,4.6492 3.36911,8.95127 l 0,87.01462 -260.54438,0 c -5.6152,0 -9.6394,-0.8326 -12.0726,-2.498 -2.4333,-1.6653 -3.6499,-3.747 -3.6499,-6.2451 0,-2.6368 1.2166,-4.7184 3.6499,-6.245 2.4332,-1.6654 6.4574,-2.498 12.0726,-2.4981 l 56.15179,0 0,-208.58533 -56.15179,0 c -5.6152,2.2e-4 -9.6394,-0.76306 -12.0726,-2.28986 -2.4333,-1.66513 -3.6499,-3.8162 -3.6499,-6.45324 0,-2.63657 1.2166,-4.71826 3.6499,-6.24508 2.4332,-1.6651 6.4574,-2.49778 12.0726,-2.49802 l 136.16813,0 c 5.61497,2.4e-4 9.63919,0.83292 12.07262,2.49802 2.43306,1.52682 3.64967,3.60851 3.64987,6.24508 -2e-4,2.63704 -1.21681,4.78811 -3.64987,6.45324 -2.43343,1.5268 -6.45765,2.29008 -12.07262,2.28986 l -56.15182,0" />
        <path
           inkscape:connector-curvature="0"
           id="path3015-4"
           style="font-size:426.33016968px;font-style:normal;font-variant:normal;font-weight:normal;font-stretch:normal;line-height:125%;letter-spacing:0px;word-spacing:0px;fill:#000000;fill-opacity:1;stroke:none;font-family:Monospace;-inkscape-font-specification:Monospace"
           d="m -923.68041,808.92117 0,208.58533 116.15832,0 0,-69.52842 c -2.2e-4,-4.16329 0.83246,-7.14705 2.49803,-8.95127 1.66513,-1.80404 3.81621,-2.7061 6.45324,-2.7062 2.4978,10e-5 4.57949,0.90216 6.24507,2.7062 1.66512,1.66544 2.49779,4.6492 2.49803,8.95127 l 0,87.01462 -193.18086,0 c -4.16342,0 -7.14717,-0.8326 -8.95127,-2.498 -1.80416,-1.6653 -2.70622,-3.747 -2.7062,-6.2451 -2e-5,-2.6368 0.90204,-4.7184 2.7062,-6.245 1.8041,-1.6654 4.78785,-2.498 8.95127,-2.4981 l 41.6338,0 0,-208.58533 -41.6338,0 c -4.16342,2.2e-4 -7.14717,-0.76306 -8.95127,-2.28986 -1.80416,-1.66513 -2.70622,-3.8162 -2.7062,-6.45324 -2e-5,-2.63657 0.90204,-4.71826 2.7062,-6.24508 1.8041,-1.6651 4.78785,-2.49778 8.95127,-2.49802 l 100.96198,0 c 4.16323,2.4e-4 7.14699,0.83292 8.95126,2.49802 1.80399,1.52682 2.70605,3.60851 2.7062,6.24508 -1.5e-4,2.63704 -0.90221,4.78811 -2.7062,6.45324 -1.80427,1.5268 -4.78803,2.29008 -8.95126,2.28986 l -41.63381,0" />
      </g>
    </g>
  </g>
</svg>
